<svg width="165" height="64" viewBox="0 0 165 64" fill="none" xmlns="http://www.w3.org/2000/svg">
<g clip-path="url(#clip0_1740_28089)">
<path d="M0 26.5947C0.0313651 26.5784 0.0725318 26.5683 0.0901746 26.5419C0.441072 26.0078 0.976238 25.8961 1.54277 25.8799C1.8231 25.8717 2.10342 25.8616 2.38571 25.9185C2.72876 25.9875 3.02673 26.1479 3.34626 26.3774C3.3541 26.089 3.53053 26.018 3.74225 25.9713C4.00101 25.9144 4.01669 25.9144 4.01669 26.2109C4.02061 27.1125 4.03434 28.0142 4.01081 28.9138C3.99709 29.4519 4.27741 29.6631 4.73613 29.6611C11.3542 29.655 17.9722 29.657 24.5902 29.657C24.6608 29.657 24.7314 29.6611 24.8019 29.653C25.147 29.6124 25.3273 29.4154 25.3352 29.0519C25.343 28.6132 25.3371 28.1746 25.3371 27.736C25.3371 27.2608 25.3352 26.7856 25.3371 26.3104C25.3391 26.02 25.341 26.02 25.6076 25.9306C25.6743 25.9083 25.7409 25.886 25.8096 25.8677C25.9213 25.8393 25.9958 25.8738 26.0017 26.0037C26.0056 26.089 26.0056 26.1743 26.0056 26.2596C26.0056 27.1491 26.0036 28.0385 26.0056 28.926C26.0075 29.4621 26.1859 29.6509 26.7015 29.653C27.5013 29.657 28.3011 29.657 29.099 29.653C29.5538 29.6509 29.7674 29.4276 29.7694 28.9605C29.7733 28.0954 29.7694 27.2303 29.7714 26.3672C29.7714 26.0037 29.8929 25.8799 30.2477 25.8616C30.3516 25.8555 30.4026 25.8961 30.4045 26.0017C30.4065 26.087 30.4065 26.1723 30.4065 26.2576C30.4065 27.1349 30.4241 28.0121 30.3987 28.8874C30.3869 29.322 30.6045 29.6611 31.124 29.655C32.0885 29.6449 33.051 29.655 34.0154 29.6509C34.48 29.6489 34.6976 29.4154 34.6996 28.926C34.7035 28.0853 34.6996 27.2445 34.7016 26.4058C34.7016 26.0301 34.9976 25.8352 35.3504 25.9855C35.4524 26.0301 35.5308 25.9956 35.619 25.9733C36.2757 25.8047 36.9226 25.8555 37.5617 26.0626C38.2223 26.2779 38.5869 26.7632 38.7143 27.4517C38.781 27.8131 38.7888 28.1746 38.7202 28.5381C38.5359 29.5047 37.7302 30.0733 36.8109 29.9941C36.2737 29.9474 35.8189 29.7098 35.4563 29.2956C35.4171 29.2509 35.3955 29.19 35.3759 29.1555C35.3034 29.192 35.272 29.1961 35.2661 29.2103C35.0093 29.787 34.5722 30.0226 33.9664 30.0124C32.9902 29.9962 32.0159 30.0043 31.0397 30.0104C30.7613 30.0124 30.4967 29.9698 30.2712 29.7992C30.1301 29.6936 30.0203 29.72 29.8909 29.8093C29.6694 29.9637 29.4205 30.0104 29.1539 30.0084C28.2952 30.0023 27.4386 30.0023 26.58 30.0084C26.3134 30.0104 26.0644 29.9637 25.8488 29.7972C25.7272 29.7037 25.6233 29.6956 25.4998 29.7951C25.2744 29.9738 25.0117 30.0104 24.7333 30.0104C18.0683 30.0084 11.4032 30.0063 4.73809 30.0104C4.29114 30.0104 3.89907 29.9028 3.61483 29.523C3.52073 29.3951 3.44624 29.4296 3.35803 29.519C2.4896 30.4023 1.09778 29.9657 0.529286 29.0925C0.384222 28.8691 0.24896 28.6437 0.164667 28.3878C0.131341 28.2863 0.12546 28.1665 0 28.1279C0 27.6182 0 27.1064 0 26.5947ZM38.0949 27.935C38.0949 27.8862 38.1047 27.7745 38.0929 27.6669C38.0263 27.0333 37.7342 26.5744 37.1382 26.351C36.8226 26.2332 36.4972 26.1946 36.1679 26.2373C35.7484 26.2921 35.2936 26.5805 35.3308 27.2181C35.3406 27.3887 35.3269 27.5593 35.3465 27.7278C35.4151 28.3492 35.6033 28.9239 36.1012 29.3159C36.7717 29.8418 37.6597 29.8073 37.9753 28.7777C38.0537 28.5239 38.1164 28.266 38.0949 27.935ZM0.560651 27.3846C0.55673 27.7908 0.635143 28.1827 0.786088 28.5544C1.02525 29.1433 1.43887 29.521 2.05833 29.6347C2.43864 29.7037 2.74641 29.5839 2.98556 29.2651C3.27569 28.8793 3.36587 28.4224 3.35999 27.9634C3.34626 26.9744 2.42099 26.152 1.4624 26.2332C0.92135 26.2799 0.582215 26.6434 0.560651 27.2039C0.558691 27.2628 0.560651 27.3237 0.560651 27.3846Z" fill="white"/>
<path d="M-5.38419e-05 15.9252C0.0313112 15.9069 0.0724779 15.8988 0.0901208 15.8724C0.441018 15.3383 0.976185 15.2266 1.54272 15.2104C1.82304 15.2023 2.10337 15.1921 2.38565 15.249C2.72871 15.318 3.02472 15.4784 3.31876 15.6876C3.4403 15.6247 3.33641 15.4338 3.47559 15.3911C3.57753 15.3607 3.67554 15.318 3.77748 15.2916C3.99115 15.2368 4.01664 15.2551 4.0186 15.5008C4.02252 16.3781 4.02056 17.2533 4.02056 18.1306C4.02056 18.8312 4.16758 18.9835 4.84781 18.9835C5.09481 18.9835 5.34181 18.9896 5.58881 18.9815C6.06517 18.9693 6.27296 18.75 6.27492 18.2585C6.27884 17.3934 6.27492 16.5304 6.27689 15.6653C6.27689 15.3485 6.47096 15.1698 6.78461 15.1901C6.85126 15.1941 6.89831 15.2205 6.90419 15.2916C6.91203 15.3891 6.91203 15.4866 6.91203 15.584C6.91203 16.4735 6.91203 17.3609 6.91203 18.2504C6.91399 18.7662 7.11786 18.9794 7.61382 18.9835C7.89611 18.9855 8.17839 18.9876 8.46068 18.9835C8.96056 18.9733 9.16443 18.7601 9.16639 18.2443C9.16835 17.4036 9.16639 16.5649 9.16639 15.7242C9.16639 15.3322 9.16639 15.3302 9.51533 15.2165C9.59178 15.1921 9.66628 15.1495 9.75645 15.1657C9.83682 15.2449 9.80154 15.3464 9.80154 15.4378C9.8035 16.3517 9.80546 17.2635 9.80154 18.1773C9.79958 18.8515 9.39575 19.3023 8.73708 19.3368C8.28033 19.3612 7.81966 19.347 7.3629 19.3389C7.16295 19.3348 6.96496 19.2881 6.80029 19.1561C6.66307 19.0464 6.53761 19.0343 6.38862 19.1439C6.17103 19.3044 5.91815 19.349 5.65154 19.3429C5.32221 19.3348 4.99288 19.3389 4.66354 19.3409C4.25384 19.345 3.89706 19.217 3.63438 18.882C3.53832 18.7581 3.46579 18.7337 3.35405 18.8515C2.53856 19.7166 1.11145 19.3247 0.527272 18.423C0.382208 18.1996 0.244986 17.9742 0.162653 17.7183C0.129327 17.6168 0.123446 17.497 -0.00201416 17.4564C-5.38419e-05 16.9487 -5.38419e-05 16.4369 -5.38419e-05 15.9252ZM0.560597 16.707C0.566478 17.2411 0.682137 17.7305 0.940899 18.1814C1.21926 18.6687 1.64661 18.9205 2.17786 18.9794C2.47583 19.014 2.73655 18.9023 2.93258 18.6647C3.27368 18.2524 3.3913 17.7488 3.35405 17.233C3.29524 16.3902 2.70126 15.7485 1.88773 15.584C1.20358 15.448 0.503748 15.7668 0.560597 16.707Z" fill="white"/>
<path d="M-4.66486e-05 34.0475C0.499835 33.9561 0.797803 34.1896 1.08401 34.6161C2.13866 36.1838 3.23644 37.717 4.3205 39.2645C4.3597 39.3193 4.38519 39.3965 4.51261 39.4046C4.51261 39.3132 4.51261 39.2238 4.51261 39.1325C4.51261 37.5993 4.51261 36.064 4.51261 34.5308C4.51261 34.4455 4.51849 34.3602 4.51261 34.2749C4.49692 34.0922 4.58906 34.0536 4.74588 34.0475C5.2144 34.0312 5.2144 34.0252 5.2144 34.5044C5.2144 36.391 5.2144 38.2795 5.2144 40.1661C5.2144 40.2392 5.20852 40.3123 5.2144 40.3854C5.22812 40.556 5.15951 40.6352 4.99092 40.621C4.92035 40.6149 4.84782 40.6108 4.77921 40.623C4.56553 40.6575 4.43419 40.5519 4.31461 40.3793C3.79709 39.6259 3.26976 38.8786 2.74636 38.1293C2.13474 37.252 1.52116 36.3747 0.907581 35.4974C0.852692 35.4203 0.813485 35.3269 0.701747 35.2984C0.599811 35.4081 0.646858 35.5502 0.646858 35.6741C0.642938 37.1728 0.644898 38.6695 0.644898 40.1681C0.644898 40.2534 0.640977 40.3387 0.644898 40.424C0.648819 40.5621 0.588049 40.623 0.454747 40.621C0.301842 40.619 0.148938 40.623 -0.00396729 40.6251C-4.66486e-05 38.4339 -4.66486e-05 36.2407 -4.66486e-05 34.0475Z" fill="white"/>
<path d="M0 44.6436C1.0919 44.6476 2.18379 44.6517 3.27569 44.6557C3.38155 44.6557 3.48741 44.6537 3.59326 44.6557C3.84418 44.6618 3.87163 44.6862 3.87359 44.8649C3.87751 45.1066 3.70696 45.0558 3.57562 45.0558C2.76601 45.0578 1.95444 45.0578 1.14483 45.0578C1.06249 45.0578 0.980159 45.0619 0.897826 45.0578C0.748842 45.0517 0.686111 45.1228 0.688072 45.2771C0.691992 45.6183 0.688072 45.9574 0.688072 46.2986C0.688072 46.6154 0.686111 46.9302 0.688072 47.247C0.690032 47.5698 0.693953 47.5759 0.997802 47.5759C1.71332 47.578 2.43079 47.5759 3.14631 47.5759C3.20512 47.5759 3.26393 47.5698 3.32274 47.578C3.45604 47.5962 3.65403 47.5008 3.65599 47.7689C3.65795 47.9577 3.62855 47.978 3.3051 47.978C2.97576 47.9801 2.64839 47.978 2.31906 47.978C1.89563 47.978 1.47416 47.976 1.05073 47.978C0.691992 47.9801 0.690032 47.9821 0.688072 48.3679C0.686111 49.1701 0.688072 49.9742 0.688072 50.7764C0.688072 50.8617 0.684151 50.947 0.688072 51.0323C0.691992 51.1744 0.623381 51.2272 0.494 51.2231C0.329333 51.2191 0.164667 51.2191 0.00196032 51.2171C0 49.03 0 46.8368 0 44.6436Z" fill="white"/>
<path d="M0 54.0723C0.311691 54.0966 0.30777 54.0966 0.354818 54.4195C0.482238 55.2887 0.495961 56.1639 0.49008 57.0392C0.49008 57.1285 0.521445 57.2402 0.397945 57.2849C0.254841 57.3377 0.145064 57.2686 0.137222 57.1062C0.115659 56.7427 0.105857 56.3772 0.0823334 56.0137C0.0744921 55.8999 0.12154 55.7659 0.00196032 55.6786C0 55.1425 0 54.6084 0 54.0723Z" fill="white"/>
<path d="M122.771 19.3629C123.139 19.2532 123.428 19.4868 123.731 19.8015C127.097 23.3066 130.475 26.7995 133.851 30.2964C133.909 30.3573 133.974 30.4122 134.023 30.4792C134.143 30.6376 134.25 30.6132 134.362 30.469C134.413 30.402 134.478 30.3472 134.535 30.2883C137.959 26.7406 141.386 23.1949 144.805 19.6411C144.993 19.4462 145.175 19.3304 145.448 19.3609C145.658 19.3832 145.871 19.3588 146.083 19.367C146.181 19.371 146.318 19.3121 146.359 19.4502C146.399 19.5863 146.418 19.7427 146.316 19.8686C146.24 19.962 146.153 20.0452 146.071 20.1305C142.505 23.8244 138.94 27.5184 135.374 31.2123C135.07 31.527 135.07 31.527 135.37 31.8398C138.512 35.095 141.655 38.3503 144.795 41.6056C144.854 41.6665 144.907 41.7335 144.971 41.7843C145.095 41.8858 145.105 41.9914 145.024 42.1315C144.811 42.4971 144.873 42.4727 145.128 42.7408C145.567 43.1997 146.005 43.6587 146.451 44.1075C146.589 44.2455 146.577 44.3308 146.446 44.4588C145.977 44.9238 146.099 44.8994 145.675 44.4608C141.974 40.6308 138.277 36.7988 134.578 32.9689C134.143 32.518 134.243 32.5302 133.807 32.981C130.098 36.8212 126.392 40.6613 122.685 44.5014C122.306 44.8934 122.381 44.8873 122.016 44.5136C121.793 44.2821 121.793 44.2801 122.028 44.0364C122.477 43.5713 122.922 43.1022 123.377 42.6433C123.494 42.5235 123.531 42.424 123.439 42.2676C123.249 41.9447 123.261 41.9671 123.529 41.6888C126.68 38.4254 129.83 35.1621 132.98 31.8966C133.368 31.4945 133.372 31.5737 132.99 31.1777C129.408 27.4656 125.825 23.7554 122.243 20.0432C122.122 19.9173 121.967 19.8117 121.989 19.5904C122.002 19.4462 122.045 19.3609 122.198 19.3649C122.363 19.367 122.528 19.3629 122.771 19.3629Z" fill="white"/>
<path d="M146.381 48.8881C146.187 48.8089 146.104 48.687 146.008 48.5855C142.176 44.6174 138.344 40.6453 134.509 36.6772C134.147 36.3015 134.235 36.2914 133.872 36.6671C130.04 40.6372 126.207 44.6073 122.373 48.5753C122.275 48.6769 122.194 48.8007 122.059 48.8616C121.991 48.689 121.945 47.9559 122.012 47.8382C122.065 47.7447 122.143 47.6676 122.218 47.5904C123.073 46.703 123.929 45.8155 124.786 44.9281C125.021 44.6844 125.031 44.6743 124.825 44.4164C124.715 44.2783 124.776 44.2052 124.866 44.1118C125.349 43.6122 125.829 43.1106 126.311 42.611C128.809 40.0137 131.306 37.4164 133.803 34.8211C133.862 34.7602 133.919 34.6993 133.978 34.6404C134.199 34.419 134.201 34.417 134.421 34.6445C136.215 36.5066 138.018 38.3587 139.796 40.2371C140.972 41.4799 142.166 42.7065 143.344 43.9493C143.401 44.0102 143.456 44.0752 143.519 44.13C143.634 44.2295 143.623 44.3189 143.54 44.4407C143.368 44.6986 143.372 44.7047 143.599 44.9383C144.423 45.7912 145.238 46.6522 146.073 47.4909C146.302 47.7224 146.424 47.9559 146.383 48.289C146.361 48.4697 146.381 48.6545 146.381 48.8881Z" fill="white"/>
<path d="M117.884 19.3669C118.227 19.3669 118.537 19.3588 118.848 19.371C118.976 19.375 119.042 19.5009 119.123 19.5842C119.971 20.4615 120.818 21.3408 121.669 22.2181C121.749 22.3013 121.816 22.4069 121.957 22.4638C122.03 22.277 121.953 22.08 122.01 21.883C122.159 21.8789 122.222 22.013 122.306 22.0983C123.347 23.1725 124.386 24.2488 125.425 25.3271C127.313 27.2827 129.199 29.2363 131.086 31.1919C131.128 31.2345 131.169 31.2772 131.212 31.3219C131.5 31.6184 131.496 31.592 131.214 31.8844C127.182 36.0616 123.149 40.2368 119.121 44.4181C118.968 44.5765 118.819 44.6638 118.597 44.6455C118.37 44.6273 118.139 44.6415 117.884 44.6415C117.933 44.4486 118.048 44.3775 118.135 44.2861C119.505 42.8626 120.873 41.439 122.253 40.0256C122.418 39.8571 122.489 39.6987 122.391 39.4875C122.279 39.2438 122.379 39.0894 122.545 38.9168C124.811 36.5794 127.072 34.236 129.332 31.8925C129.655 31.5554 129.653 31.6468 129.338 31.3198C125.615 27.4594 121.889 23.603 118.166 19.7426C118.07 19.6431 117.948 19.5598 117.884 19.3669Z" fill="white"/>
<path d="M150.523 19.3633C150.427 19.5441 150.315 19.6334 150.217 19.735C146.51 23.5771 142.803 27.4172 139.096 31.2574C138.728 31.6391 138.728 31.5681 139.096 31.9498C141.323 34.2588 143.55 36.5677 145.783 38.8706C145.987 39.0818 146.102 39.2767 145.975 39.5712C145.883 39.7804 146.018 39.9103 146.148 40.0423C147.512 41.4537 148.874 42.8671 150.241 44.2764C150.331 44.3698 150.447 44.4389 150.584 44.5424C150.343 44.6359 149.619 44.6826 149.515 44.6196C149.425 44.5648 149.351 44.4836 149.276 44.4064C148.261 43.3565 147.247 42.3066 146.234 41.2547C143.233 38.1456 140.231 35.0366 137.232 31.9275C136.901 31.5843 136.893 31.627 137.224 31.2838C140.174 28.2275 143.127 25.1692 146.077 22.1129C146.157 22.0297 146.228 21.9322 146.367 21.8632C146.377 22.0825 146.387 22.2693 146.395 22.4764C146.553 22.4602 146.622 22.3343 146.706 22.247C147.557 21.3717 148.408 20.4944 149.249 19.609C149.417 19.4303 149.59 19.3369 149.835 19.3572C150.045 19.3775 150.256 19.3633 150.523 19.3633Z" fill="white"/>
<path d="M121.993 52.6856C121.993 52.3261 121.989 52.0134 121.995 51.7006C121.998 51.5504 122.124 51.4752 122.212 51.3818C123.441 50.1065 124.67 48.8332 125.901 47.5579C126.176 47.2736 126.452 46.9914 126.723 46.705C126.913 46.502 126.909 46.4979 126.719 46.3029C126.537 46.1161 126.533 46.1121 126.725 45.913C129.142 43.4071 131.561 40.9012 133.98 38.3973C134.186 38.1841 134.192 38.1841 134.39 38.3892C136.809 40.8931 139.228 43.399 141.645 45.9049C141.851 46.1181 141.853 46.1303 141.613 46.3395C141.488 46.4512 141.5 46.5304 141.609 46.6319C141.67 46.6888 141.725 46.7517 141.784 46.8127C143.238 48.3195 144.691 49.8283 146.15 51.329C146.31 51.4935 146.404 51.658 146.385 51.9017C146.365 52.1393 146.381 52.3809 146.381 52.6612C146.21 52.582 146.128 52.4622 146.032 52.3647C142.207 48.4048 138.387 44.4448 134.562 40.4849C134.154 40.0625 134.239 40.0686 133.843 40.4788C130.018 44.4387 126.197 48.3987 122.373 52.3586C122.275 52.4642 122.193 52.586 121.993 52.6856Z" fill="white"/>
<path d="M121.989 15.125C122.181 15.1595 122.247 15.2854 122.334 15.3748C123.533 16.6135 124.733 17.8503 125.923 19.0971C126.101 19.284 126.276 19.4099 126.537 19.3631C126.831 19.3104 127.034 19.4444 127.242 19.6596C129.422 21.932 131.61 24.1943 133.798 26.4585C133.847 26.5093 133.898 26.5621 133.947 26.6129C134.188 26.8586 134.188 26.8586 134.435 26.6027C136.597 24.3649 138.757 22.125 140.919 19.885C140.978 19.8241 141.043 19.7713 141.092 19.7023C141.292 19.4261 141.549 19.2961 141.884 19.3571C142.101 19.3956 142.254 19.2982 142.409 19.1377C143.609 17.8827 144.817 16.6359 146.024 15.389C146.114 15.2976 146.185 15.1778 146.346 15.127C146.412 15.4662 146.379 15.7992 146.365 16.1302C146.363 16.181 146.308 16.2338 146.271 16.2785C146.216 16.3414 146.155 16.4003 146.099 16.4612C142.241 20.4577 138.385 24.4542 134.527 28.4487C134.17 28.8183 134.225 28.8081 133.88 28.4527C130.014 24.4481 126.15 20.4415 122.279 16.4429C122.071 16.2277 121.951 16.0165 121.987 15.7078C122.006 15.5271 121.989 15.3342 121.989 15.125Z" fill="white"/>
<path d="M90.9764 23.4792C91.0274 23.6315 91.0078 23.7676 91.0078 23.8996C91.0097 25.5201 91.0097 27.1386 91.0097 28.7592C91.0097 28.8566 91.0058 28.9541 91.0117 29.0516C91.0352 29.4049 91.2548 29.6385 91.6017 29.6507C91.9428 29.6628 92.2839 29.6588 92.625 29.6527C93.0661 29.6425 93.2661 29.4313 93.2661 28.9724C93.268 27.5346 93.268 26.0989 93.268 24.6611C93.268 24.5027 93.268 24.3443 93.268 24.1859C93.268 23.6031 93.268 23.6031 93.862 23.4874C93.9326 23.5706 93.9032 23.6701 93.9032 23.7635C93.9051 25.4572 93.8894 27.1488 93.913 28.8424C93.9208 29.4577 93.4837 30.0142 92.7838 30.0101C92.3722 30.0081 91.9605 30.006 91.5488 30.0101C91.292 30.0121 91.0607 29.935 90.8529 29.7887C90.7392 29.7075 90.6432 29.7055 90.5334 29.7908C90.2962 29.9756 90.0217 30.0121 89.7316 30.0101C88.5789 30.006 87.4263 30.0365 86.2756 29.9979C85.6581 29.9776 85.0425 29.9938 84.427 29.9959C76.868 30.0162 69.307 30.0081 61.7481 30.0101C61.4481 30.0101 61.1619 29.9735 60.9149 29.7806C60.8149 29.7034 60.7267 29.7075 60.6268 29.7806C60.3562 29.9817 60.0465 30.0202 59.7211 30.0121C59.2977 30.002 58.8742 30.0142 58.4508 30.0081C58.2783 30.006 58.2136 30.0588 58.1901 30.2517C58.0862 31.1067 57.5745 31.7017 56.8041 31.9088C56.71 31.9332 56.6454 31.9129 56.5983 31.8256C56.5454 31.7261 56.5944 31.6631 56.6689 31.6123C56.7865 31.5331 56.91 31.46 57.0257 31.3768C57.4138 31.0965 57.5824 30.7046 57.5745 30.2193C57.5726 30.0588 57.502 30.002 57.3589 30.0101C57.0531 30.0304 56.7492 29.9776 56.4454 29.9573C56.3984 29.9553 56.3513 29.9532 56.3043 29.9492C55.2947 29.8781 54.8007 29.3115 54.9046 28.2657C55.0104 27.2138 55.5358 26.4482 56.4924 26.0359C56.8571 25.8796 57.2452 25.8633 57.6353 25.8714C58.2881 25.8877 58.194 25.7821 58.1979 26.4482C58.2038 27.3864 58.1999 28.3246 58.1999 29.2607C58.1999 29.6811 58.1842 29.6507 58.59 29.6507C58.9781 29.6507 59.3663 29.6527 59.7544 29.6507C60.2465 29.6466 60.4562 29.4273 60.4562 28.9094C60.4582 27.3255 60.4562 25.7435 60.4562 24.1595C60.4562 23.6011 60.4562 23.6011 61.0541 23.4731C61.1188 23.5909 61.0914 23.727 61.0914 23.8529C61.0933 25.5587 61.0914 27.2625 61.0933 28.9683C61.0933 29.3359 61.2345 29.5471 61.5285 29.6303C61.5834 29.6466 61.6442 29.6486 61.703 29.6527C61.7735 29.6567 61.8441 29.6547 61.9147 29.6547C69.3561 29.6547 76.7994 29.6547 84.2408 29.6527C84.3741 29.6527 84.5191 29.6892 84.6877 29.5796C84.3309 29.277 84.131 28.8708 83.8389 28.5419C83.4723 28.1317 83.0077 27.9164 82.4784 27.8433C82.4098 27.8331 82.3373 27.8494 82.2746 27.8006C82.2471 27.7235 82.2765 27.6585 82.3118 27.5935C82.9293 26.4035 83.8546 25.7191 85.1935 25.7313C85.4993 25.7334 85.8031 25.7821 86.0933 25.8897C87.0362 26.2349 87.3655 26.9437 87.2361 27.9245C87.1558 28.5337 86.8793 29.0252 86.3853 29.3785C86.3109 29.4313 86.2168 29.4699 86.1815 29.5715C86.2912 29.671 86.4226 29.6507 86.55 29.6507C87.5968 29.6527 88.6436 29.6547 89.6885 29.6507C90.1668 29.6486 90.3785 29.4313 90.3785 28.9419C90.3805 27.3579 90.3785 25.776 90.3785 24.192C90.3707 23.6173 90.3707 23.6173 90.9764 23.4792ZM86.5716 27.6199C86.5775 26.8767 86.3246 26.4421 85.7384 26.2126C85.5306 26.1314 85.3111 26.0806 85.0857 26.0867C84.2466 26.1151 83.6233 26.5477 83.143 27.23C82.9665 27.4818 82.9764 27.5123 83.2606 27.5834C83.8722 27.7377 84.3407 28.091 84.6936 28.6251C84.8445 28.8546 85.019 29.0658 85.2327 29.2445C85.4052 29.3907 85.5502 29.3968 85.7384 29.279C86.3481 28.8993 86.5676 28.3205 86.5716 27.6199ZM57.5687 27.9834C57.5687 27.557 57.5687 27.1325 57.5687 26.7061C57.5687 26.1923 57.4863 26.1294 56.9884 26.2654C56.9198 26.2837 56.8531 26.306 56.7885 26.3324C55.7887 26.7467 55.3927 27.9469 55.5476 28.8302C55.6221 29.2587 55.9024 29.4983 56.3062 29.5938C56.6434 29.673 56.9845 29.6446 57.3236 29.6567C57.504 29.6628 57.5745 29.5979 57.5706 29.407C57.5628 28.9318 57.5687 28.4566 57.5687 27.9834Z" fill="white"/>
<path d="M139.602 47.5963C139.508 47.7445 139.326 47.7405 139.204 47.8846C139.243 48.0044 139.353 48.0796 139.439 48.1689C141.623 50.4352 143.805 52.7056 146.002 54.9557C146.287 55.2481 146.438 55.5344 146.383 55.9426C146.363 56.0949 146.379 56.2533 146.379 56.4442C146.21 56.3833 146.132 56.2574 146.038 56.1599C142.213 52.2 138.391 48.24 134.566 44.2801C134.15 43.8496 134.233 43.8617 133.819 44.2923C129.995 48.2522 126.172 52.2121 122.347 56.1721C122.251 56.2716 122.173 56.3934 121.991 56.4645C121.991 56.1193 121.989 55.8086 121.991 55.4979C121.991 55.4065 122.043 55.3395 122.104 55.2786C122.171 55.2095 122.238 55.1405 122.304 55.0714C124.474 52.8234 126.642 50.5774 128.812 48.3294C128.861 48.2786 128.912 48.2258 128.961 48.175C129.22 47.9049 129.218 47.9049 128.901 47.71C128.861 47.6856 128.83 47.6491 128.801 47.6227C128.83 47.4785 128.936 47.4115 129.016 47.3282C130.653 45.6305 132.29 43.9348 133.927 42.2392C133.976 42.1884 134.029 42.1376 134.078 42.0848C134.158 41.9975 134.239 41.9955 134.321 42.0808C134.37 42.1336 134.423 42.1823 134.472 42.2351C136.109 43.9308 137.748 45.6265 139.383 47.3242C139.465 47.4054 139.565 47.4765 139.602 47.5963Z" fill="white"/>
<path d="M146.346 25.6521C146.416 25.8572 146.349 26.0541 146.402 26.2613C146.54 26.2186 146.61 26.1009 146.696 26.0115C148.743 23.8955 150.792 21.7794 152.828 19.6512C153.038 19.4319 153.246 19.3243 153.538 19.3568C153.722 19.3771 153.91 19.3608 154.083 19.3608C154.101 19.3974 154.108 19.4075 154.112 19.4197C154.114 19.4299 154.112 19.4421 154.11 19.4542C154.108 19.4664 154.105 19.4786 154.099 19.4867C154.085 19.507 154.071 19.5253 154.054 19.5436C150.192 23.5502 146.328 27.5569 142.466 31.5656C142.458 31.5737 142.456 31.5879 142.45 31.6021C142.503 31.728 142.613 31.8052 142.703 31.8986C143.85 33.0886 144.993 34.2807 146.148 35.4605C146.32 35.6372 146.418 35.8179 146.383 36.0677C146.338 36.3723 146.457 36.5835 146.667 36.8008C149.086 39.2905 151.493 41.7903 153.903 44.2881C153.993 44.3816 154.103 44.4567 154.177 44.6354C153.834 44.6354 153.514 44.6374 153.193 44.6354C153.117 44.6354 153.068 44.5765 153.017 44.5257C152.95 44.4587 152.883 44.3877 152.817 44.3206C148.835 40.1962 144.852 36.0697 140.87 31.9453C140.504 31.5656 140.502 31.6468 140.88 31.2549C142.592 29.48 144.305 27.7051 146.018 25.9343C146.112 25.8328 146.193 25.7089 146.346 25.6521Z" fill="white"/>
<path d="M146.377 11.3174C146.377 11.6768 146.377 11.9896 146.377 12.3003C146.377 12.3795 146.332 12.4363 146.283 12.4891C146.218 12.5582 146.151 12.6272 146.085 12.6963C142.219 16.7009 138.355 20.7055 134.488 24.7081C134.148 25.0574 134.235 25.0695 133.878 24.6999C130.004 20.6872 126.131 16.6724 122.253 12.6658C122.063 12.4688 121.959 12.2759 121.987 11.9956C122.006 11.7845 121.991 11.5692 121.991 11.3235C122.185 11.3905 122.263 11.5164 122.357 11.6139C124.76 14.1015 127.166 16.5871 129.561 19.0829C129.761 19.2901 129.959 19.4099 130.24 19.3632C130.496 19.3205 130.677 19.4302 130.855 19.6211C131.853 20.671 132.862 21.7087 133.87 22.7525C133.937 22.8215 134.005 22.8885 134.07 22.9576C134.164 23.0591 134.252 23.0449 134.341 22.9495C134.405 22.8784 134.474 22.8134 134.541 22.7443C135.546 21.7026 136.556 20.6649 137.555 19.615C137.724 19.4363 137.897 19.3226 138.14 19.3672C138.44 19.4221 138.64 19.2758 138.843 19.0626C141.223 16.5851 143.611 14.1157 145.997 11.6443C146.095 11.5387 146.179 11.4189 146.377 11.3174Z" fill="white"/>
<path d="M114.277 19.3633C114.557 19.3633 114.835 19.3653 115.116 19.3633C115.218 19.3633 115.298 19.3998 115.367 19.475C115.431 19.546 115.5 19.6131 115.567 19.6821C117.586 21.7738 119.605 23.8675 121.626 25.9571C121.722 26.0566 121.795 26.1947 121.951 26.2211C122.091 26.0647 121.975 25.8616 122.051 25.6951C122.167 25.6809 122.212 25.7845 122.273 25.8474C124.045 27.6792 125.815 29.5129 127.585 31.3467C127.634 31.3974 127.685 31.4502 127.73 31.5051C127.783 31.568 127.789 31.6371 127.732 31.702C127.67 31.7752 127.603 31.8442 127.536 31.9132C123.524 36.0722 119.507 40.2291 115.498 44.3921C115.316 44.583 115.133 44.6724 114.881 44.648C114.683 44.6297 114.483 44.6439 114.263 44.6439C114.263 44.4774 114.39 44.4124 114.473 44.3271C116.715 41.9999 118.958 39.6768 121.203 37.3516C121.318 37.2317 121.436 37.1119 121.552 36.9901C122.051 36.4601 122.059 36.5799 122.02 35.8955C122.01 35.7087 122.122 35.6092 122.23 35.4975C123.002 34.6974 123.776 33.8973 124.549 33.0951C124.957 32.6727 125.364 32.2524 125.77 31.828C125.98 31.6086 125.976 31.6066 125.782 31.3954C125.725 31.3345 125.666 31.2736 125.607 31.2147C121.91 27.3847 118.211 23.5527 114.514 19.7207C114.424 19.6273 114.338 19.5298 114.249 19.4364C114.257 19.41 114.267 19.3856 114.277 19.3633Z" fill="white"/>
<path d="M121.991 60.2133C121.991 59.866 121.991 59.5654 121.991 59.2629C121.991 59.1695 122.036 59.1024 122.096 59.0415C122.163 58.9725 122.23 58.9034 122.296 58.8344C125.429 55.5893 128.562 52.3441 131.694 49.097C131.784 49.0036 131.892 48.9244 131.959 48.7863C131.812 48.6807 131.629 48.699 131.475 48.6279C131.445 48.5203 131.531 48.4756 131.586 48.4208C132.382 47.5922 133.18 46.7657 133.98 45.9412C134.186 45.728 134.19 45.728 134.39 45.9331C135.189 46.7576 135.985 47.5861 136.783 48.4126C136.832 48.4634 136.893 48.506 136.911 48.6116C136.783 48.7051 136.605 48.6787 136.464 48.766C136.432 48.902 136.55 48.9508 136.617 49.0219C137.179 49.6108 137.746 50.1936 138.31 50.7805C140.904 53.4671 143.493 56.1538 146.093 58.8344C146.299 59.0476 146.426 59.2547 146.389 59.5634C146.365 59.7624 146.385 59.9675 146.385 60.2072C146.199 60.1483 146.12 60.0224 146.026 59.9249C142.592 56.3711 139.161 52.8153 135.729 49.2595C135.287 48.8025 134.848 48.3456 134.407 47.8907C134.194 47.6714 134.19 47.6714 133.97 47.8989C133.653 48.2238 133.339 48.5528 133.023 48.8797C129.475 52.5553 125.927 56.231 122.377 59.9066C122.273 60.0041 122.193 60.13 121.991 60.2133Z" fill="white"/>
<path d="M121.944 30.0287C122.032 29.7972 121.94 29.5941 122.02 29.4194C122.12 29.4052 122.155 29.4783 122.202 29.5271C122.802 30.1465 123.402 30.7658 123.998 31.3872C124.202 31.6005 124.202 31.6066 123.998 31.8177C123.551 32.2848 123.1 32.7478 122.651 33.2129C119.078 36.9149 115.502 40.6149 111.934 44.3251C111.707 44.5627 111.483 44.6845 111.164 44.6459C110.981 44.6236 110.793 44.6419 110.574 44.6419C110.631 44.4753 110.742 44.4002 110.829 44.3109C114.434 40.5723 118.041 36.8337 121.653 33.1032C121.885 32.8636 122.044 32.6321 121.987 32.2787C121.953 32.0736 122.004 31.8949 122.173 31.7609C122.308 31.6512 122.283 31.5375 122.165 31.4278C122.087 31.3547 122.016 31.2735 121.94 31.1963C118.258 27.3826 114.577 23.5689 110.895 19.7531C110.797 19.6516 110.684 19.5643 110.607 19.3978C110.95 19.3267 111.274 19.3592 111.593 19.3734C111.691 19.3774 111.746 19.481 111.813 19.548C112.071 19.8141 112.328 20.0821 112.587 20.3481C115.604 23.4734 118.621 26.5988 121.638 29.7241C121.73 29.8215 121.822 29.9089 121.944 30.0287Z" fill="white"/>
<path d="M157.81 44.6398C157.476 44.6398 157.186 44.6378 156.894 44.6398C156.804 44.6398 156.737 44.5992 156.676 44.5363C156.62 44.4753 156.561 44.4164 156.502 44.3555C152.503 40.2148 148.506 36.0721 144.509 31.9315C144.162 31.572 144.166 31.6309 144.519 31.2633C145.032 30.7293 145.548 30.1952 146.065 29.6631C146.148 29.5799 146.212 29.4743 146.359 29.4154C146.373 29.6185 146.387 29.8134 146.4 30.0307C146.571 29.9657 146.651 29.8439 146.747 29.7444C149.941 26.4383 153.138 23.1384 156.316 19.8181C156.643 19.4769 156.963 19.2861 157.419 19.3632C157.531 19.3815 157.651 19.3409 157.782 19.4038C157.735 19.5561 157.614 19.6374 157.519 19.7348C153.848 23.5425 150.172 27.3481 146.499 31.1537C146.44 31.2146 146.383 31.2735 146.324 31.3344C146.079 31.5883 146.073 31.5944 146.293 31.8644C146.399 31.9944 146.391 32.1406 146.373 32.2787C146.334 32.6016 146.465 32.8189 146.681 33.0402C150.294 36.7707 153.901 40.5093 157.506 44.2479C157.608 44.3494 157.727 44.4327 157.81 44.6398Z" fill="white"/>
<path d="M121.989 7.52979C122.187 7.60898 122.265 7.73489 122.363 7.83643C125.98 11.5811 129.597 15.3238 133.206 19.0745C133.404 19.2796 133.598 19.3913 133.882 19.367C134.15 19.3426 134.423 19.3548 134.691 19.3649C134.842 19.369 134.966 19.3324 135.066 19.2086C135.135 19.1253 135.215 19.0522 135.289 18.975C138.871 15.2649 142.454 11.5547 146.034 7.84049C146.124 7.74707 146.191 7.62726 146.306 7.54197C146.41 7.91156 146.383 8.25679 146.367 8.59795C146.365 8.64872 146.308 8.70152 146.271 8.7462C146.216 8.80915 146.155 8.86804 146.099 8.92896C142.243 12.9234 138.387 16.9199 134.529 20.9144C134.166 21.2901 134.227 21.2779 133.884 20.9245C130.01 16.9138 126.139 12.8991 122.261 8.89241C122.061 8.68731 121.957 8.48017 121.985 8.18978C122.004 7.9867 121.989 7.77957 121.989 7.52979Z" fill="white"/>
<path d="M103.275 19.3913C103.366 19.371 103.377 19.3649 103.389 19.367C103.705 19.371 104.044 19.3061 104.332 19.4015C104.61 19.4929 104.785 19.8117 105.001 20.0331C108.751 23.9138 112.497 27.7966 116.245 31.6793C116.551 31.9961 116.551 31.9961 116.249 32.3089C112.385 36.3115 108.517 40.314 104.661 44.3227C104.434 44.5583 104.211 44.6822 103.891 44.6436C103.709 44.6212 103.522 44.6395 103.301 44.6395C103.375 44.4608 103.491 44.3776 103.587 44.2801C107.433 40.2937 111.281 36.3074 115.129 32.3211C115.49 31.9474 115.49 32.0489 115.118 31.6651C111.279 27.6869 107.439 23.7087 103.601 19.7325C103.501 19.633 103.407 19.5294 103.275 19.3913Z" fill="white"/>
<path d="M161.446 19.3631C161.364 19.5458 161.256 19.623 161.166 19.7164C157.319 23.7028 153.471 27.6891 149.625 31.6754C149.264 32.0491 149.274 31.9577 149.611 32.307C153.458 36.2954 157.304 40.2797 161.15 44.2681C161.248 44.3696 161.367 44.4529 161.446 44.6397C161.115 44.6397 160.805 44.6397 160.495 44.6397C160.419 44.6397 160.364 44.597 160.311 44.5442C160.236 44.4671 160.16 44.3899 160.085 44.3127C156.23 40.3183 152.374 36.3238 148.518 32.3293C148.492 32.3029 148.469 32.2786 148.443 32.2522C148.177 31.976 148.182 32.0207 148.441 31.7506C152.356 27.6952 156.271 23.6418 160.18 19.5824C160.334 19.422 160.485 19.3428 160.705 19.359C160.938 19.3773 161.171 19.3631 161.446 19.3631Z" fill="white"/>
<path d="M121.989 0C122.183 0.0771681 122.263 0.201043 122.359 0.30258C126.192 4.27064 130.022 8.23871 133.854 12.2088C134.233 12.6007 134.158 12.6089 134.55 12.2027C138.373 8.24277 142.196 4.28283 146.02 0.322887C146.116 0.223381 146.202 0.105598 146.377 0.00812295C146.377 0.369594 146.377 0.690451 146.377 1.01334C146.377 1.09254 146.328 1.14737 146.279 1.20017C146.222 1.26109 146.163 1.32201 146.106 1.38293C142.243 5.38552 138.377 9.39013 134.513 13.3927C134.166 13.7522 134.223 13.7379 133.896 13.3988C130.014 9.37795 126.135 5.35506 122.247 1.34029C122.055 1.14127 121.965 0.942263 121.987 0.668113C122.002 0.463008 121.989 0.255873 121.989 0Z" fill="white"/>
<path d="M106.951 19.3652C107.282 19.3652 107.582 19.3652 107.882 19.3652C107.959 19.3652 108.016 19.4038 108.068 19.4566C108.135 19.5257 108.202 19.5927 108.268 19.6617C112.134 23.6663 116 27.671 119.866 31.6756C120.213 32.035 120.22 31.9497 119.873 32.3092C116.008 36.3138 112.142 40.3164 108.28 44.3271C108.066 44.5484 107.857 44.6865 107.545 44.6459C107.363 44.6215 107.175 44.6418 106.998 44.6418C106.947 44.5058 107.039 44.4652 107.088 44.4083C107.149 44.3352 107.22 44.2702 107.286 44.2012C111.111 40.2392 114.935 36.2772 118.758 32.3153C119.097 31.9619 119.095 32.035 118.75 31.6796C114.91 27.6994 111.07 23.7212 107.229 19.743C107.137 19.6414 107.018 19.5582 106.951 19.3652Z" fill="white"/>
<path d="M146.381 3.78955C146.381 4.12056 146.377 4.4008 146.383 4.67901C146.385 4.7968 146.353 4.89224 146.267 4.97144C146.206 5.0283 146.15 5.09125 146.093 5.15218C142.227 9.15679 138.363 13.1614 134.497 17.162C134.15 17.5214 134.241 17.5356 133.89 17.1721C130.016 13.1614 126.144 9.14664 122.265 5.13999C122.065 4.93489 121.957 4.72978 121.987 4.43736C122.006 4.23631 121.991 4.03324 121.991 3.8058C122.177 3.83626 122.243 3.96216 122.328 4.04949C124.366 6.15536 126.403 8.2653 128.442 10.3732C130.245 12.2415 132.049 14.1098 133.852 15.978C133.901 16.0288 133.95 16.0816 134.001 16.1324C134.192 16.3192 134.196 16.3233 134.388 16.1243C135.429 15.05 136.466 13.9717 137.506 12.8954C140.341 9.95893 143.176 7.02249 146.01 4.08807C146.104 3.99059 146.187 3.86672 146.381 3.78955Z" fill="white"/>
<path d="M164.473 19.365C164.639 19.365 164.757 19.3568 164.875 19.367C165.002 19.3771 165.035 19.4543 164.957 19.5599C164.884 19.6554 164.796 19.7386 164.714 19.8239C160.909 23.7676 157.102 27.7093 153.297 31.653C152.917 32.0469 152.917 31.9515 153.291 32.3393C157.104 36.2912 160.919 40.243 164.731 44.1948C164.835 44.3024 165.043 44.404 164.984 44.5563C164.914 44.7431 164.692 44.6131 164.539 44.6395C164.196 44.7004 163.955 44.5481 163.712 44.2943C159.864 40.2917 156.006 36.3013 152.15 32.3048C151.805 31.9474 151.813 32.0347 152.16 31.6733C156.008 27.6869 159.856 23.7046 163.7 19.7163C163.936 19.4746 164.159 19.2594 164.473 19.365Z" fill="white"/>
<path d="M146.381 63.2473C146.381 63.3488 146.383 63.4097 146.381 63.4707C146.371 63.6981 146.222 63.7915 146.036 63.6717C145.938 63.6087 145.861 63.5113 145.777 63.426C142.035 59.5513 138.295 55.6746 134.552 51.8C134.16 51.3939 134.233 51.402 133.856 51.7919C130.106 55.6746 126.358 59.5595 122.606 63.4422C122.494 63.558 122.408 63.7184 122.21 63.7143C122.071 63.7123 121.995 63.6798 121.987 63.5133C121.973 63.164 122.022 62.8817 122.294 62.6035C126.164 58.6192 130.018 54.6187 133.876 50.6242C134.225 50.2627 134.162 50.2404 134.519 50.61C138.385 54.6146 142.251 58.6212 146.12 62.6218C146.306 62.8127 146.436 63.0036 146.381 63.2473Z" fill="white"/>
<path d="M72.0358 17.107C72.5082 16.0977 73.2061 15.3687 74.3058 15.123C74.8233 15.0072 75.335 15.0458 75.8368 15.2001C76.5406 15.4134 77.1777 15.9657 77.0581 17.1415C76.9856 17.8503 76.6817 18.3803 76.1211 18.7702C76.0838 18.7966 76.0505 18.8311 76.0172 18.8636C76.0113 18.8697 76.0133 18.8859 76.0093 18.9022C76.1015 18.9976 76.2211 18.9854 76.3367 18.9854C77.5482 18.9875 78.7577 18.9895 79.9692 18.9854C80.4612 18.9834 80.6533 18.7824 80.6553 18.2767C80.6592 17.436 80.6553 16.5973 80.6592 15.7566C80.6592 15.6307 80.6004 15.458 80.7474 15.3931C80.9023 15.326 81.0748 15.2103 81.2473 15.2956C81.3551 15.3504 81.4414 15.3504 81.5453 15.3179C82.1863 15.125 82.8273 15.1859 83.4566 15.3646C84.1113 15.5515 84.5348 15.9921 84.6681 16.6948C84.7739 17.2532 84.7798 17.8056 84.5426 18.3376C84.2172 19.0687 83.4605 19.4017 82.7332 19.3205C82.2353 19.2657 81.8138 19.0423 81.4708 18.6646C81.4179 18.6057 81.3747 18.5265 81.2748 18.5082C81.2552 18.5305 81.2238 18.5529 81.212 18.5833C80.9787 19.1316 80.5534 19.3428 79.9966 19.3408C78.693 19.3367 77.3874 19.3672 76.0838 19.3266C75.4781 19.3083 74.8763 19.3225 74.2725 19.3266C70.2538 19.351 66.2332 19.3388 62.2146 19.3408C61.8029 19.3408 61.4501 19.219 61.1815 18.89C61.0913 18.7803 61.0207 18.7296 60.8992 18.8514C60.0602 19.6962 58.6899 19.3672 58.0215 18.3681C57.6098 17.7528 57.4569 17.0623 57.5039 16.3252C57.5275 15.9515 57.7117 15.6591 58.0313 15.4682C58.2057 15.3646 58.392 15.2895 58.5919 15.2631C59.5466 15.1372 60.0641 15.1352 60.8502 15.6631C60.9365 15.6043 60.8659 15.4621 60.9659 15.4174C61.1344 15.3382 61.3168 15.2062 61.4932 15.2875C61.6324 15.3504 61.5598 15.5515 61.5618 15.6895C61.5677 16.5425 61.5638 17.3933 61.5657 18.2462C61.5677 18.8047 61.7363 18.9773 62.2891 18.9814C62.9125 18.9834 63.5358 18.9814 64.1573 18.9814C67.4604 18.9814 70.7616 18.9814 74.0647 18.9793C74.2 18.9793 74.345 19.024 74.4881 18.9022C74.1823 18.6219 73.9843 18.2605 73.7315 17.9457C73.3531 17.4725 72.8473 17.237 72.2632 17.17C72.2063 17.1639 72.1475 17.1557 72.0907 17.1456C72.0769 17.1476 72.0691 17.1354 72.0358 17.107ZM82.4039 15.5575C81.7139 15.5535 81.31 15.8703 81.2885 16.4876C81.2669 17.0989 81.361 17.7 81.6962 18.232C81.9315 18.6077 82.2569 18.8433 82.6803 18.9408C83.2037 19.0585 83.6428 18.8494 83.8624 18.3376C84.027 17.9558 84.1192 17.5517 84.0819 17.1314C84.0231 16.4531 83.7722 15.9068 83.0978 15.6753C82.8646 15.5961 82.6215 15.5474 82.4039 15.5575ZM60.8855 17.3771C60.8835 16.3252 59.9935 15.4763 59.0075 15.5616C58.5174 15.6043 58.2195 15.8886 58.1038 16.3841C58.0411 16.6582 58.1097 16.9202 58.1352 17.1801C58.1959 17.767 58.4253 18.2869 58.8879 18.6585C59.4525 19.1134 60.4091 19.2474 60.76 18.1041C60.8365 17.8563 60.8933 17.6106 60.8855 17.3771ZM76.4073 16.8572C76.47 16.0957 75.878 15.6043 75.2938 15.4621C74.4509 15.255 73.41 15.8256 72.9258 16.6257C72.8179 16.8044 72.8297 16.845 73.0375 16.8958C73.7256 17.0684 74.2392 17.4807 74.6156 18.0919C74.743 18.299 74.9174 18.4635 75.1037 18.6138C75.2389 18.7255 75.3644 18.7275 75.5212 18.6321C76.1544 18.2442 76.3955 17.6492 76.4073 16.8572Z" fill="white"/>
<path d="M26.9955 18.9426C26.9955 18.9141 26.9994 18.8979 26.9955 18.8918C26.6701 18.573 26.4584 18.1567 26.1487 17.8256C25.7821 17.4337 25.3234 17.2347 24.8059 17.1718C24.7372 17.1636 24.6647 17.1839 24.5745 17.1149C25.0352 16.0934 25.739 15.3745 26.8367 15.1227C27.3543 15.005 27.8679 15.0476 28.3697 15.1999C29.2558 15.4659 29.7106 16.1544 29.5949 17.1718C29.5145 17.8764 29.2009 18.4064 28.6285 18.7842C28.5912 18.8085 28.5442 18.8309 28.5403 18.9019C28.6383 19.0014 28.7696 18.9832 28.8931 18.9832C29.9399 18.9852 30.9848 18.9852 32.0316 18.9832C32.5236 18.9811 32.7334 18.7598 32.7334 18.2399C32.7353 16.6681 32.7334 15.0984 32.7334 13.5266C32.7334 12.9397 32.7334 12.9397 33.3176 12.8057C33.3999 12.893 33.3666 13.0067 33.3666 13.1082C33.3685 14.7775 33.3705 16.4447 33.3666 18.114C33.3646 18.8898 32.9412 19.3304 32.1825 19.3386C31.3239 19.3446 30.4653 19.3446 29.6086 19.3386C28.9872 19.3345 28.3619 19.3934 27.7502 19.2309C27.7071 19.2187 27.6562 19.2248 27.6111 19.237C27.1504 19.3568 26.6799 19.3406 26.2094 19.3406C21.6243 19.3406 17.041 19.3406 12.4558 19.3386C12.3029 19.3386 12.152 19.3446 11.9991 19.3182C11.7266 19.2695 11.7129 19.2736 11.7188 19.5518C11.7266 19.9904 11.5796 20.36 11.3032 20.6829C11.0268 21.0058 10.6386 21.1317 10.2779 21.3043C10.2015 21.3409 10.1407 21.3206 10.1015 21.2434C10.0643 21.1703 10.0662 21.0992 10.1329 21.0484C10.2093 20.9916 10.2936 20.9469 10.372 20.8941C10.8249 20.5875 11.0875 20.1752 11.0836 19.5944C11.0758 18.3029 11.0817 17.0134 11.0817 15.7218C11.0817 15.3664 11.2385 15.204 11.5835 15.1938C11.6756 15.1918 11.7109 15.2365 11.7129 15.3217C11.7168 15.407 11.7168 15.4923 11.7168 15.5776C11.7168 16.4671 11.7148 17.3565 11.7168 18.244C11.7188 18.7639 11.9226 18.9832 12.4166 18.9832C17.19 18.9852 21.9614 18.9852 26.7348 18.9832C26.823 18.9832 26.9191 19.0035 26.9955 18.9426ZM28.9284 16.8773C28.9715 16.4874 28.8441 16.13 28.5403 15.8315C28.2403 15.535 27.8718 15.4273 27.4797 15.4233C26.6368 15.4152 26.0114 15.8497 25.5233 16.528C25.3195 16.8123 25.3273 16.8367 25.6527 16.926C26.2584 17.0926 26.7289 17.4459 27.072 17.9881C27.1367 18.0896 27.2072 18.1871 27.2857 18.2765C27.7679 18.8349 28.1031 18.8167 28.5501 18.2135C28.5638 18.1952 28.5755 18.1729 28.5893 18.1526C28.8402 17.781 28.9441 17.3667 28.9284 16.8773Z" fill="white"/>
<path d="M44.4051 18.9082C44.3914 18.8351 44.3326 18.8087 44.2855 18.7782C43.5837 18.3335 43.4289 17.6512 43.5524 16.8775C43.6719 16.122 44.0954 15.5961 44.7972 15.3341C45.4695 15.0843 46.1615 14.9808 46.8731 15.1229C47.3397 15.2163 47.62 15.5047 47.6984 15.9921C47.8905 17.1801 47.4201 18.1345 46.4928 18.7275C46.3948 18.7904 46.2909 18.8473 46.1949 18.9062C46.2184 19.0422 46.3105 18.9834 46.3634 18.9834C47.3044 18.9874 48.2434 18.9894 49.1843 18.9854C49.7176 18.9834 49.892 18.7945 49.894 18.232C49.8959 17.4034 49.894 16.5769 49.894 15.7484C49.894 15.3057 49.8587 15.3707 50.2645 15.2204C50.3409 15.192 50.4193 15.1737 50.488 15.1554C50.5919 15.2204 50.5625 15.3138 50.5625 15.393C50.5644 16.3068 50.5683 17.2186 50.5625 18.1325C50.5566 18.892 50.1292 19.3367 49.3961 19.3408C48.3728 19.3489 47.3495 19.3915 46.3301 19.3286C45.3068 19.2656 44.2914 19.3651 43.272 19.3469C42.2625 19.3286 41.2509 19.3428 40.2394 19.3428C39.8023 19.3428 39.3749 19.2758 38.9554 19.1519C37.7067 18.7782 37.397 17.771 37.8478 16.6013C38.0537 16.0692 38.4457 15.7037 38.926 15.4438C39.371 15.2041 39.8552 15.1067 40.3492 15.0681C40.5276 15.0539 40.5903 15.1392 40.5609 15.3037C40.5393 15.4214 40.4551 15.4153 40.3747 15.4255C39.9865 15.4824 39.6141 15.592 39.2847 15.8154C38.8162 16.1322 38.4849 16.5505 38.3634 17.1374C38.1458 18.1893 38.7574 18.7559 39.5709 18.9184C39.8454 18.9732 40.1277 18.9915 40.4119 18.9915C41.5979 18.9834 42.7859 18.9894 43.9719 18.9874C44.1169 18.9834 44.2757 19.0219 44.4051 18.9082ZM47.0594 16.5647C47.0594 16.4673 47.0633 16.3698 47.0594 16.2743C47.028 15.726 46.732 15.4296 46.2066 15.4194C45.544 15.4072 44.9932 15.655 44.5678 16.1809C43.9033 17.0054 44.1444 18.234 44.9324 18.7234C45.0422 18.7904 45.1461 18.8574 45.2912 18.8107C46.2811 18.5021 47.1084 17.6898 47.0594 16.5647Z" fill="white"/>
<path d="M91.5861 36.9939C91.8507 36.5288 92.1056 36.0821 92.3604 35.6333C92.6054 35.2027 92.8603 34.7803 93.0877 34.3397C93.2033 34.1143 93.3484 34.0127 93.5895 34.0493C93.7032 34.0676 93.8228 34.0229 93.9541 34.098C93.9071 34.2848 93.7993 34.4432 93.7052 34.6057C93.1602 35.5581 92.6133 36.5085 92.0624 37.4569C91.9487 37.6518 91.8978 37.8488 91.9017 38.0783C91.9115 38.8093 91.9056 39.5384 91.9056 40.2694C91.9056 40.6228 91.9017 40.6228 91.5488 40.6228C91.5253 40.6228 91.5018 40.6228 91.4783 40.6228C91.2136 40.6147 91.2097 40.6147 91.2077 40.3283C91.2038 39.5851 91.2019 38.8439 91.2097 38.1006C91.2117 37.8853 91.1666 37.6965 91.0588 37.5137C90.4942 36.5451 89.9335 35.5744 89.3768 34.6016C89.3003 34.4696 89.2357 34.4473 89.0769 34.4595C88.6084 34.494 88.1379 34.4737 87.6674 34.4757C87.5615 34.4757 87.4557 34.4798 87.3498 34.4778C87.2303 34.4757 87.1812 34.5387 87.1832 34.6585C87.1852 34.756 87.1812 34.8535 87.1812 34.9509C87.1812 36.6913 87.1812 38.4316 87.1812 40.174C87.1812 40.2593 87.1773 40.3446 87.1812 40.4299C87.1871 40.568 87.1224 40.6147 86.9911 40.6268C86.4951 40.6715 86.4736 40.6573 86.4736 40.1476C86.4736 38.4194 86.4736 36.6913 86.4736 34.9611C86.4736 34.8758 86.4677 34.7905 86.4736 34.7052C86.4893 34.5245 86.401 34.4737 86.2423 34.4757C85.713 34.4798 85.1837 34.4757 84.6564 34.4778C84.5152 34.4778 84.4368 34.4372 84.4388 34.2727C84.4388 34.1204 84.4878 34.0432 84.6426 34.0533C84.7014 34.0574 84.7602 34.0533 84.8191 34.0533C86.3814 34.0533 87.9458 34.0594 89.5081 34.0452C89.7571 34.0432 89.8904 34.1366 90.0061 34.3458C90.4589 35.156 90.9235 35.9602 91.3842 36.7664C91.4293 36.8375 91.4587 36.9207 91.5861 36.9939Z" fill="white"/>
<path d="M57.649 39.4065C57.7137 39.238 57.6902 39.1019 57.6922 38.974C57.6941 37.4631 57.6922 35.9543 57.6941 34.4434C57.6941 34.0474 57.6961 34.0474 58.0842 34.0515C58.39 34.0555 58.394 34.0556 58.394 34.3805C58.3959 36.3543 58.3959 38.3262 58.394 40.3001C58.394 40.6169 58.3881 40.6006 58.0803 40.627C57.7804 40.6534 57.5942 40.5519 57.4118 40.2859C56.2905 38.6471 55.1496 37.0245 54.0127 35.3979C53.9793 35.3491 53.9382 35.3065 53.8892 35.2476C53.7853 35.3451 53.8303 35.4588 53.8303 35.5542C53.8264 37.1138 53.8284 38.6714 53.8284 40.231C53.8284 40.627 53.8264 40.627 53.4383 40.6209C53.1325 40.6169 53.1286 40.6169 53.1266 40.296C53.1246 38.3221 53.1246 36.3503 53.1266 34.3764C53.1266 34.0556 53.1325 34.0738 53.4363 34.0454C53.7264 34.019 53.899 34.1266 54.0715 34.3764C55.1712 35.9705 56.2905 37.5505 57.402 39.1365C57.4628 39.2238 57.5138 39.3192 57.649 39.4065Z" fill="white"/>
<path d="M77.8227 50.0497C77.8952 49.8791 77.8658 49.7451 77.8658 49.6151C77.8678 48.0941 77.8678 46.571 77.8678 45.05C77.8678 44.6499 77.8697 44.6499 78.2598 44.6581C78.5499 44.6642 78.5676 44.6743 78.5676 44.9647C78.5695 46.9609 78.5695 48.9592 78.5676 50.9554C78.5676 51.2194 78.5597 51.2194 78.3127 51.2275C78.2422 51.2295 78.1696 51.2194 78.101 51.2295C77.8854 51.262 77.756 51.1524 77.6364 50.9777C77.0993 50.1939 76.5524 49.4181 76.0094 48.6383C75.4174 47.7895 74.8273 46.9426 74.2333 46.0938C74.1784 46.0166 74.1177 45.9435 74.0432 45.8481C73.9746 45.9496 74 46.0471 74 46.1344C73.9981 47.6676 73.9981 49.2029 73.9981 50.7361C73.9981 50.8214 73.9922 50.9066 73.9981 50.9919C74.0118 51.1646 73.9412 51.2295 73.7726 51.2275C73.2002 51.2214 73.2963 51.2519 73.2963 50.7442C73.2924 48.8698 73.2943 46.9934 73.2943 45.119C73.2943 45.0581 73.2924 44.9972 73.2943 44.9363C73.3022 44.6621 73.3041 44.6763 73.5786 44.652C73.8609 44.6256 74.0471 44.7129 74.2235 44.9688C75.3154 46.5548 76.425 48.1245 77.5306 49.6984C77.6149 49.8161 77.6854 49.942 77.8227 50.0497Z" fill="white"/>
<path d="M47.9749 48.1427C47.9749 49.0687 47.9768 49.9947 47.9729 50.9187C47.9729 51.2192 47.967 51.2192 47.6808 51.2253C47.6455 51.2253 47.6103 51.2253 47.575 51.2253C47.2711 51.2213 47.2692 51.2213 47.2672 50.8963C47.2652 49.1052 47.2672 47.3161 47.2652 45.525C47.2652 45.0295 47.3025 45.0803 46.8242 45.0783C46.3655 45.0762 45.9067 45.0823 45.448 45.0762C45.254 45.0742 45.2049 44.9991 45.2285 44.8061C45.2402 44.7006 45.2932 44.6579 45.3892 44.6559C45.448 44.6559 45.5068 44.6538 45.5656 44.6538C46.93 44.6518 48.2924 44.6599 49.6568 44.6417C49.9097 44.6376 50.0352 44.7412 50.1508 44.9483C50.5919 45.7383 51.0467 46.5201 51.4936 47.306C51.523 47.3588 51.5485 47.4136 51.5819 47.4644C51.6779 47.6045 51.7269 47.6086 51.8132 47.4684C51.9328 47.2735 52.0386 47.0704 52.1523 46.8694C52.5071 46.2378 52.8619 45.6083 53.2187 44.9788C53.3893 44.6762 53.701 44.5543 54.0166 44.6599C54.0871 44.6843 54.1067 44.7351 54.0813 44.8001C54.0538 44.8671 54.0185 44.93 53.9813 44.993C53.3814 46.0388 52.7816 47.0867 52.1758 48.1284C52.0798 48.2929 52.0425 48.4574 52.0425 48.6463C52.0484 49.3773 52.0465 50.1084 52.0445 50.8395C52.0445 51.2334 52.0425 51.2334 51.6505 51.2253C51.6034 51.2253 51.5564 51.2233 51.5093 51.2233C51.4113 51.2233 51.3564 51.1766 51.3525 51.071C51.3505 50.9857 51.3505 50.9004 51.3505 50.8151C51.3505 50.1084 51.3466 49.4017 51.3525 48.695C51.3545 48.494 51.3133 48.3153 51.2133 48.1427C50.6801 47.2248 50.1469 46.3069 49.6274 45.3808C49.5 45.1554 49.3549 45.0498 49.0962 45.0722C48.8158 45.0965 48.5316 45.0742 48.2493 45.0783C47.9788 45.0823 47.9729 45.0864 47.971 45.3626C47.9729 46.2906 47.9749 47.2166 47.9749 48.1427Z" fill="white"/>
<path d="M42.2664 37.1339C42.4409 37.2334 42.5761 37.3045 42.7055 37.3857C43.2642 37.7432 43.472 38.2894 43.4367 38.9393C43.4014 39.5952 43.1054 40.0947 42.5134 40.3791C42.2233 40.5192 41.9175 40.6106 41.5979 40.6146C40.8707 40.6248 40.1414 40.6227 39.4141 40.6187C39.1671 40.6166 39.1593 40.6085 39.1593 40.3466C39.1573 38.3402 39.1573 36.3338 39.1593 34.3254C39.1593 34.0594 39.1671 34.0513 39.4102 34.0492C40.0905 34.0452 40.7727 34.0411 41.4529 34.0553C41.8077 34.0635 42.1468 34.1589 42.4624 34.3396C43.3583 34.8534 43.374 36.281 42.5997 36.8902C42.4997 36.9735 42.3919 37.0425 42.2664 37.1339ZM39.8631 38.7768C39.8631 39.1789 39.867 39.581 39.8611 39.981C39.8572 40.1638 39.9219 40.2471 40.1061 40.2471C40.5884 40.2471 41.0687 40.2552 41.547 40.1821C42.6506 40.0135 43.1074 38.8743 42.433 37.9686C42.1429 37.5807 41.741 37.3817 41.2823 37.3451C40.8844 37.3126 40.4845 37.3411 40.0846 37.3329C39.9121 37.3289 39.8611 37.4061 39.8631 37.5726C39.867 37.9726 39.8631 38.3747 39.8631 38.7768ZM40.5276 36.9654C40.6688 36.9654 40.8099 36.9715 40.951 36.9634C41.2961 36.9471 41.6254 36.8638 41.9214 36.675C42.5624 36.2648 42.6506 35.4119 42.1155 34.8636C41.9155 34.6585 41.6744 34.5529 41.4058 34.4838C41.0922 34.4046 40.7766 34.4188 40.459 34.4188C39.8631 34.4168 39.8631 34.4188 39.8631 35.0341C39.8631 35.5946 39.8689 36.1551 39.8611 36.7136C39.8591 36.9024 39.9219 36.9796 40.1061 36.9674C40.2453 36.9573 40.3865 36.9654 40.5276 36.9654Z" fill="white"/>
<path d="M10.8013 47.9517C10.8484 49.8159 9.23697 51.408 7.43936 51.3715C5.60058 51.3349 4.13034 49.7367 4.15779 47.8948C4.18719 46.0062 5.66135 44.5015 7.51189 44.5015C9.44477 44.4994 10.8758 46.2418 10.8013 47.9517ZM10.1074 47.7121C10.1211 47.3567 9.96425 46.8023 9.68196 46.2845C8.74493 44.5766 6.62191 44.4263 5.4908 45.9941C4.7008 47.0907 4.63022 48.6137 5.45748 49.8464C6.38667 51.2313 8.12547 51.3816 9.25658 50.1693C9.83095 49.556 10.0917 48.8066 10.1074 47.7121Z" fill="white"/>
<path d="M13.928 47.958C14.5455 49.0566 15.1336 50.1025 15.7453 51.1889C15.5139 51.2478 15.3179 51.2153 15.1278 51.2214C14.9945 51.2255 14.9553 51.1158 14.9023 51.0224C14.5926 50.4761 14.2829 49.9319 13.9731 49.3856C13.7595 49.0079 13.5379 48.6343 13.336 48.2484C13.2341 48.0575 13.1106 47.9702 12.891 47.9783C12.2441 47.9986 12.3343 47.9133 12.3304 48.5693C12.3265 49.3491 12.3304 50.1289 12.3284 50.9066C12.3265 51.2234 12.3225 51.2234 12.0109 51.2275C11.9403 51.2275 11.8697 51.2234 11.7991 51.2255C11.6796 51.2295 11.6306 51.1646 11.6325 51.0447C11.6345 50.9716 11.6306 50.8985 11.6306 50.8254C11.6306 48.9003 11.6306 46.9772 11.6306 45.052C11.6306 44.9789 11.6325 44.9058 11.6325 44.8327C11.6325 44.7129 11.6874 44.652 11.805 44.656C12.5793 44.6804 13.3576 44.585 14.126 44.7271C14.3574 44.7698 14.5808 44.851 14.7886 44.9667C15.6531 45.4419 15.8727 46.634 15.2375 47.4057C14.9788 47.7204 14.62 47.8321 14.2476 47.9174C14.1692 47.9377 14.0868 47.9397 13.928 47.958ZM12.3284 46.2969C12.3284 46.6502 12.3304 47.0015 12.3265 47.3549C12.3245 47.5031 12.3735 47.5823 12.5284 47.5803C12.9753 47.5722 13.4223 47.5925 13.8653 47.56C14.4005 47.5194 14.769 47.1762 14.869 46.6908C15.0258 45.9232 14.5553 45.2165 13.8026 45.0825C13.3948 45.0094 12.9832 45.0358 12.5735 45.0256C12.3931 45.0216 12.3186 45.0866 12.3245 45.2795C12.3363 45.6166 12.3284 45.9557 12.3284 46.2969Z" fill="white"/>
<path d="M41.7547 47.9741C42.3624 49.0565 42.9505 50.1023 43.5582 51.1847C43.325 51.2436 43.1387 51.2152 42.9564 51.2213C42.8074 51.2253 42.7663 51.0974 42.7075 50.9959C42.3546 50.3785 42.0017 49.7592 41.6508 49.1418C41.4725 48.827 41.2882 48.5143 41.1216 48.1935C41.0373 48.031 40.9275 47.9762 40.755 47.9802C40.0179 47.9985 40.1453 47.8868 40.1375 48.6138C40.1296 49.3936 40.1375 50.1734 40.1336 50.9512C40.1316 51.2152 40.1257 51.2152 39.8807 51.2253C39.8219 51.2274 39.7631 51.2274 39.7043 51.2253C39.4396 51.2172 39.4337 51.2172 39.4318 50.9329C39.4298 48.9367 39.4298 46.9385 39.4318 44.9422C39.4318 44.664 39.4396 44.6579 39.7101 44.6559C40.2747 44.6518 40.8393 44.6417 41.4019 44.66C41.888 44.6762 42.3546 44.7899 42.7702 45.0763C43.3504 45.4763 43.4641 46.0652 43.3681 46.7151C43.2799 47.3182 42.9015 47.6817 42.3487 47.8482C42.1723 47.9031 41.9841 47.9274 41.7547 47.9741ZM40.1375 46.2825C40.1375 46.646 40.1394 47.0116 40.1375 47.3751C40.1375 47.5071 40.1806 47.5802 40.3198 47.5781C40.7765 47.572 41.2353 47.5944 41.6901 47.5558C42.2154 47.5132 42.6016 47.17 42.6741 46.7151C42.8212 45.7972 42.4075 45.2489 41.5842 45.0742C41.1765 44.9869 40.7667 45.0397 40.357 45.0214C40.1845 45.0133 40.1316 45.0925 40.1355 45.2611C40.1414 45.6022 40.1375 45.9414 40.1375 46.2825Z" fill="white"/>
<path d="M75.533 37.3654C76.1446 38.4539 76.7307 39.4997 77.3404 40.5842C77.1091 40.637 76.9248 40.6126 76.7425 40.6146C76.5817 40.6166 76.5327 40.4806 76.468 40.3669C75.9682 39.4855 75.4722 38.6022 74.9704 37.7208C74.8939 37.5868 74.8527 37.3898 74.6979 37.3614C74.4822 37.3228 74.2529 37.3472 74.0314 37.3532C73.9412 37.3553 73.9255 37.4365 73.9236 37.5137C73.9216 37.6477 73.9216 37.7817 73.9216 37.9158C73.9216 38.7078 73.9235 39.4997 73.9216 40.2917C73.9216 40.6187 73.9177 40.6187 73.6158 40.6227C73.5452 40.6248 73.4746 40.6187 73.4041 40.6227C73.2668 40.6288 73.2139 40.5578 73.2198 40.4217C73.2218 40.3486 73.2198 40.2755 73.2198 40.2024C73.2198 38.2894 73.2198 36.3785 73.2198 34.4655C73.2198 34.3802 73.2218 34.295 73.2218 34.2097C73.2237 34.1061 73.2747 34.0513 73.3747 34.0533C74.1725 34.0797 74.9743 33.966 75.7663 34.1264C76.2014 34.2137 76.6013 34.3965 76.8797 34.7722C77.5462 35.6698 77.1189 36.9654 76.0642 37.2517C75.9035 37.2964 75.7427 37.3208 75.533 37.3654ZM73.9196 35.7083C73.9196 36.0373 73.9157 36.3663 73.9216 36.6933C73.9255 36.9674 73.9294 36.9694 74.2039 36.9735C74.5332 36.9776 74.8606 36.9715 75.1899 36.9715C75.4036 36.9715 75.6094 36.9227 75.8094 36.8496C76.1877 36.7095 76.4034 36.415 76.4641 36.017C76.5857 35.2311 76.1701 34.6422 75.4114 34.4737C74.9802 34.3782 74.545 34.4412 74.1137 34.4209C73.953 34.4127 73.9177 34.5082 73.9196 34.6503C73.9216 35.0017 73.9196 35.355 73.9196 35.7083Z" fill="white"/>
<path d="M32.1276 40.5742C32.0355 40.6006 32.012 40.6128 31.9904 40.6128C31.3004 40.6108 31.4709 40.7225 31.12 40.1132C30.6358 39.2664 30.1536 38.4176 29.6811 37.5626C29.5851 37.388 29.4694 37.3352 29.2852 37.3392C28.601 37.3575 28.7127 37.2519 28.7069 37.9363C28.701 38.7262 28.7069 39.5182 28.7049 40.3082C28.7049 40.6148 28.699 40.6148 28.4187 40.6229C28.3716 40.625 28.3246 40.625 28.2775 40.6229C28.0129 40.6148 28.007 40.6148 28.007 40.3305C28.0051 38.3343 28.0051 36.3401 28.007 34.3439C28.007 34.0596 28.0129 34.0535 28.2795 34.0535C28.8794 34.0494 29.4773 34.0413 30.0771 34.0576C30.5045 34.0698 30.9122 34.1875 31.2808 34.419C31.9002 34.8069 32.0433 35.4121 31.9433 36.0944C31.8492 36.7321 31.4239 37.0773 30.8554 37.2519C30.6985 37.3007 30.5358 37.321 30.328 37.3636C30.9279 38.4358 31.518 39.4898 32.1276 40.5742ZM28.7049 35.6883C28.7049 36.0396 28.7108 36.3929 28.7029 36.7442C28.699 36.9168 28.7657 36.9818 28.9303 36.9757C29.1989 36.9676 29.4694 36.9696 29.7399 36.9757C30.0105 36.9798 30.279 36.9595 30.5378 36.8762C30.971 36.7361 31.2219 36.4112 31.2592 35.9482C31.3239 35.1623 30.9632 34.6546 30.2085 34.4739C29.7576 34.3662 29.2989 34.4373 28.8421 34.4251C28.7108 34.4211 28.7049 34.5307 28.7049 34.6323C28.7049 34.9836 28.7049 35.3349 28.7049 35.6883Z" fill="white"/>
<path d="M50.7448 36.4781C50.7448 35.7836 50.7428 35.0891 50.7468 34.3966C50.7487 34.0555 50.7526 34.0555 51.0879 34.0514C51.1584 34.0514 51.229 34.0555 51.2996 34.0514C51.4348 34.0453 51.4917 34.1123 51.4878 34.2484C51.4858 34.3093 51.4878 34.3702 51.4878 34.4311C51.4878 35.674 51.4878 36.9147 51.4878 38.1575C51.4878 38.4886 51.4446 38.8135 51.3466 39.1282C51.1153 39.8593 50.6487 40.3528 49.9352 40.5904C49.202 40.8341 48.4767 40.8178 47.7671 40.5112C46.9183 40.1436 46.4752 39.4369 46.4419 38.5231C46.3909 37.1117 46.4262 35.6983 46.4184 34.287C46.4184 34.1164 46.4733 34.0473 46.6419 34.0494C47.2182 34.0555 47.1241 34.023 47.126 34.5266C47.13 35.7085 47.128 36.8883 47.126 38.0702C47.126 38.4256 47.1731 38.7749 47.2652 39.114C47.4691 39.8735 48.02 40.3243 48.7806 40.3528C49.0276 40.3629 49.2746 40.371 49.5157 40.302C50.1312 40.1253 50.4664 39.6684 50.6487 39.0612C50.7409 38.7546 50.7448 38.4378 50.7468 38.121C50.7468 37.5747 50.7448 37.0264 50.7448 36.4781Z" fill="white"/>
<path d="M38.2674 40.5945C37.6146 40.6697 37.6146 40.6697 37.3833 40.0787C37.2519 39.7416 37.1147 39.4045 36.9951 39.0613C36.9265 38.8643 36.8246 38.7831 36.609 38.7851C35.7993 38.7994 34.9878 38.8034 34.1782 38.7831C33.9253 38.777 33.8253 38.8867 33.7449 39.1019C33.5881 39.5203 33.4019 39.9284 33.249 40.3488C33.1686 40.5681 33.0451 40.6514 32.8275 40.625C32.7138 40.6108 32.5962 40.623 32.4727 40.623C32.459 40.3854 32.5746 40.2209 32.6432 40.0483C33.4097 38.1536 34.1801 36.263 34.9544 34.3723C35.0015 34.2566 35.0113 34.086 35.1662 34.0637C35.3504 34.0373 35.5425 34.021 35.7248 34.0779C35.8189 34.1063 35.8385 34.2261 35.8719 34.3155C36.4698 35.8467 37.0657 37.3799 37.6636 38.911C37.8479 39.3842 38.0361 39.8553 38.2203 40.3285C38.2517 40.4057 38.3066 40.4788 38.2674 40.5945ZM35.4386 35.0323C35.1603 35.4811 34.1135 38.1455 34.0997 38.4074C34.1566 38.4135 34.2134 38.4257 34.2723 38.4257C34.9878 38.4277 35.7033 38.4298 36.4168 38.4257C36.7246 38.4237 36.7383 38.3993 36.6188 38.0845C36.4286 37.589 36.2365 37.0935 36.0444 36.598C35.8523 36.0924 35.6562 35.5888 35.4386 35.0323Z" fill="white"/>
<path d="M27.1112 40.5863C27.0994 40.5923 27.0896 40.6025 27.0798 40.6045C26.4525 40.6756 26.4525 40.6756 26.2192 40.0704C26.084 39.7212 25.9389 39.3739 25.8174 39.0206C25.7546 38.8398 25.6566 38.785 25.4782 38.787C24.6451 38.7951 23.81 38.7951 22.9769 38.787C22.7847 38.785 22.6828 38.8419 22.6103 39.0368C22.4574 39.4572 22.2672 39.8633 22.1065 40.2796C21.9575 40.6675 21.9908 40.6187 21.5948 40.6208C21.2616 40.6208 21.2498 40.5984 21.3831 40.2674C22.1888 38.2854 22.9984 36.3055 23.8002 34.3214C23.8786 34.1285 23.9786 34.0128 24.1903 34.0513C24.2138 34.0554 24.2373 34.0513 24.2609 34.0513C24.6039 34.0513 24.602 34.0513 24.7372 34.3986C24.9783 35.018 25.2214 35.6373 25.4625 36.2567C25.9899 37.6092 26.5152 38.9617 27.0406 40.3141C27.0759 40.4015 27.1386 40.4827 27.1112 40.5863ZM22.8475 38.4276C23.1043 38.4276 23.2905 38.4276 23.4787 38.4276C24.1001 38.4276 24.7235 38.4296 25.3449 38.4255C25.539 38.4235 25.5547 38.3951 25.5017 38.2144C25.4821 38.1453 25.4547 38.0763 25.4272 38.0092C25.0685 37.0853 24.7098 36.1592 24.351 35.2353C24.3236 35.1642 24.3314 35.0626 24.2079 35.0484C23.7649 36.1552 23.3179 37.2619 22.8475 38.4276Z" fill="white"/>
<path d="M6.07501 40.57C6.23968 40.1639 6.39846 39.7618 6.56313 39.3618C7.24728 37.6823 7.93143 36.0029 8.61951 34.3255C8.65871 34.2301 8.66067 34.0839 8.78613 34.0656C8.98216 34.0372 9.188 34.0148 9.37815 34.0798C9.48205 34.1143 9.48793 34.2585 9.52713 34.358C9.84862 35.1662 10.1642 35.9785 10.4818 36.7888C10.9209 37.9159 11.362 39.0409 11.7972 40.17C11.8481 40.302 11.9344 40.4259 11.903 40.5843C11.7658 40.6513 11.6227 40.6046 11.4855 40.6228C11.3032 40.6472 11.2091 40.5619 11.1464 40.3893C10.9895 39.9568 10.819 39.5303 10.6524 39.1018C10.5347 38.7952 10.5347 38.7911 10.223 38.7911C9.41343 38.7891 8.60186 38.7992 7.79225 38.785C7.58054 38.781 7.48056 38.8581 7.40803 39.0592C7.24924 39.4897 7.05713 39.908 6.89835 40.3406C6.81993 40.5558 6.70231 40.6574 6.4808 40.6249C6.35534 40.6046 6.224 40.6533 6.07501 40.57ZM9.08802 35.0444C9.06254 35.0444 9.03901 35.0444 9.01353 35.0424C8.58226 36.1613 8.09806 37.2559 7.68051 38.3951C8.30389 38.4662 10.0995 38.4398 10.3642 38.3545C9.9388 37.2498 9.51341 36.1471 9.08802 35.0444Z" fill="white"/>
<path d="M92.4231 18.9855C91.8272 18.3438 91.5782 17.5944 91.2763 16.8715C91.1548 16.5811 91.0078 16.3049 90.8274 16.047C90.2726 15.257 89.3689 15.3809 88.8416 15.9394C88.8259 15.9576 88.8102 15.9759 88.7926 15.9922C88.7279 16.0531 88.6965 16.1891 88.5789 16.1323C88.4731 16.0815 88.3868 15.9861 88.3319 15.8784C88.2829 15.781 88.3613 15.7221 88.4241 15.6672C88.9083 15.2449 89.4669 15.0702 90.0942 15.1433C90.8078 15.2286 91.2822 15.6754 91.6586 16.2683C91.9193 16.6786 92.084 17.1355 92.2702 17.5802C92.3976 17.8808 92.529 18.1793 92.7054 18.4555C92.9289 18.8068 93.221 19.0139 93.6444 18.9834C93.6914 18.9794 93.7385 18.9834 93.7855 18.9895C93.8737 18.9997 93.8973 19.0626 93.8992 19.1418C93.8992 19.2312 93.8953 19.3185 93.7836 19.3307C93.7012 19.3388 93.6189 19.3388 93.5366 19.3388C91.3979 19.3388 89.2592 19.3388 87.1204 19.3388C86.6833 19.3388 86.3108 19.217 86.0678 18.8068C85.9737 18.6463 85.9207 18.4798 85.9207 18.2889C85.9227 16.5973 85.9247 14.9037 85.9168 13.2121C85.9168 13.0131 85.9913 12.9258 86.1638 12.8851C86.2559 12.8648 86.3422 12.8242 86.4324 12.8019C86.5029 12.7836 86.5461 12.8222 86.55 12.8933C86.5559 12.9907 86.5559 13.0882 86.5559 13.1857C86.5559 14.8529 86.5559 16.5222 86.5559 18.1894C86.5559 18.7986 86.7264 18.9814 87.3008 18.9814C88.9808 18.9855 90.6608 18.9855 92.4231 18.9855Z" fill="white"/>
<path d="M38.5849 46.9992C38.5849 47.645 38.5888 48.2887 38.5829 48.9345C38.579 49.3792 38.4732 49.7996 38.2654 50.1915C38.0615 50.5773 37.7753 50.8759 37.3891 51.0586C36.5697 51.4465 35.7346 51.479 34.8936 51.1338C34.1663 50.8352 33.7586 50.2565 33.592 49.4828C33.5351 49.2228 33.5135 48.9568 33.5135 48.6867C33.5194 47.4703 33.5155 46.2519 33.5155 45.0355C33.5155 44.6537 33.5175 44.6537 33.8801 44.6557C34.2193 44.6577 34.2212 44.6577 34.2232 45.0233C34.2251 46.1422 34.2173 47.2632 34.2271 48.3821C34.231 48.7944 34.2565 49.2066 34.3428 49.6127C34.5662 50.6626 35.4503 51.1074 36.3639 50.9672C37.1343 50.8495 37.5714 50.3743 37.7596 49.6209C37.836 49.3142 37.8772 49.0015 37.8753 48.6847C37.8733 47.4927 37.8753 46.2986 37.8753 45.1065C37.8753 45.0212 37.8792 44.936 37.8753 44.8507C37.8713 44.7105 37.9399 44.6679 38.0674 44.6557C38.5614 44.611 38.581 44.6273 38.581 45.139C38.5849 45.7584 38.5849 46.3798 38.5849 46.9992Z" fill="white"/>
<path d="M64.3102 39.5041C64.6317 38.6066 64.9492 37.7191 65.2668 36.8317C65.5609 36.0113 65.8628 35.1929 66.1509 34.3704C66.2842 33.9907 66.2921 34.0557 66.5998 34.0496C66.6234 34.0496 66.6469 34.0496 66.6704 34.0496C66.9801 34.0557 66.9899 34.0719 66.8782 34.3887C66.7527 34.7421 66.6273 35.0954 66.4999 35.4488C65.9216 37.0551 65.3433 38.6594 64.763 40.2636C64.7199 40.3834 64.7258 40.5662 64.5866 40.5987C64.3827 40.6474 64.1651 40.6434 63.9593 40.5967C63.873 40.5764 63.8613 40.4708 63.8338 40.3916C63.6064 39.7539 63.3771 39.1163 63.1516 38.4766C62.6635 37.0957 62.1793 35.7127 61.6932 34.3318C61.6657 34.2526 61.6167 34.1795 61.6422 34.0739C61.8069 34.0232 61.9833 34.0618 62.1558 34.0496C62.2813 34.0394 62.344 34.1003 62.3852 34.2222C62.5165 34.6121 62.6596 34.9979 62.7968 35.3858C63.2595 36.6977 63.7221 38.0115 64.1847 39.3234C64.2004 39.3823 64.2063 39.4452 64.3102 39.5041Z" fill="white"/>
<path d="M42.8898 27.3013C42.9878 27.0068 43.0368 26.7347 43.0388 26.4544C43.0407 25.6401 43.0407 24.8238 43.0466 24.0094C43.0466 23.8916 42.9976 23.7454 43.1132 23.6683C43.272 23.5647 43.4563 23.5099 43.6406 23.4753C43.7092 23.4632 43.7249 23.5444 43.7268 23.6073C43.7288 23.7292 43.7288 23.851 43.7288 23.9729C43.7288 24.6775 43.721 25.3842 43.7308 26.0889C43.7406 26.7083 43.6229 27.2992 43.3857 27.8617C43.3093 28.0465 43.3054 28.1968 43.3857 28.3796C43.5739 28.802 43.6778 29.2508 43.7209 29.7138C43.7464 29.9839 43.7209 30.0143 43.4661 30.0143C42.4918 30.0184 41.5156 30.0164 40.5413 30.0143C40.4315 30.0143 40.2943 30.0529 40.2767 29.864C40.259 29.6874 40.2982 29.6224 40.4845 29.6143C40.7569 29.6041 41.0196 29.5676 41.2784 29.4701C41.8488 29.2548 42.2448 28.8466 42.5389 28.3085C42.6251 28.1501 42.6114 28.0201 42.5291 27.8678C42.0037 26.9032 41.3098 26.0848 40.5178 25.3517C39.9826 24.8562 39.4043 24.4217 38.8025 24.0176C38.7182 23.9607 38.5516 23.9323 38.6222 23.7596C38.6947 23.585 38.8221 23.5606 39.0319 23.6825C39.5023 23.9566 39.9493 24.2734 40.3747 24.6187C41.3058 25.3721 42.1449 26.2148 42.8094 27.2322C42.8153 27.2525 42.8408 27.2647 42.8898 27.3013ZM41.9488 29.5797C41.9586 29.6021 41.9684 29.6265 41.9782 29.6488C42.188 29.6488 42.3958 29.6488 42.6055 29.6488C43.0858 29.6488 43.1172 29.6122 43.0015 29.137C42.9741 29.0254 42.9819 28.8913 42.8466 28.7979C42.5781 29.0903 42.3017 29.3828 41.9488 29.5797Z" fill="white"/>
<path d="M24.1668 54.9803C24.2295 55.1935 24.1923 55.4108 24.1962 55.626C24.2021 55.955 24.204 56.284 24.1962 56.613C24.1864 57.0557 23.9629 57.2872 23.5395 57.2933C23.3317 57.2973 23.1141 57.3379 22.9279 57.1877C22.8769 57.1471 22.8259 57.1532 22.7652 57.1796C22.3476 57.3562 21.9281 57.3644 21.5106 57.1775C21.4498 57.1491 21.4027 57.1674 21.3459 57.1856C20.8205 57.3623 20.2932 57.3603 19.7678 57.1877C19.6933 57.1633 19.6424 57.1653 19.5738 57.1978C19.2601 57.3501 18.9386 57.34 18.623 57.208C18.5446 57.1755 18.4877 57.1532 18.3956 57.1917C18.0016 57.3603 17.5997 57.3501 17.2037 57.1978C17.1332 57.1694 17.0802 57.1674 17.0077 57.1938C16.5176 57.3684 16.0197 57.3278 15.5218 57.2242C15.4532 57.21 15.3865 57.1694 15.3199 57.21C15.1121 57.3319 14.8847 57.2933 14.6632 57.2953C14.0163 57.2994 13.3694 57.2994 12.7244 57.2953C12.2559 57.2933 11.9873 57.0029 11.9991 56.5196C12.0148 55.9225 12.4715 55.2199 12.9773 55.0229C13.0871 54.9803 13.1988 54.9417 13.3203 54.9518C13.3831 54.9559 13.4419 54.9721 13.4517 55.0432C13.4615 55.1184 13.4066 55.1468 13.3439 55.1569C12.8832 55.226 12.697 55.5996 12.5147 55.9713C12.4833 56.0362 12.4617 56.1073 12.446 56.1784C12.299 56.8607 12.2794 57.1511 13.0988 57.1004C13.6614 57.0658 14.226 57.0963 14.7906 57.0922C15.1356 57.0902 15.2258 56.9968 15.2317 56.6333C15.2375 56.1946 15.2317 55.756 15.2336 55.3174C15.2356 55.027 15.2395 55.027 15.5688 54.9884C15.6178 55.2646 15.5845 55.5448 15.5904 55.823C15.5963 56.0911 15.5884 56.3591 15.5924 56.6272C15.5963 57.0191 15.6649 57.0861 16.055 57.0922C16.1961 57.0943 16.3373 57.0943 16.4784 57.0922C16.8313 57.0841 16.9195 57.0009 16.9254 56.6394C16.9332 56.2007 16.9254 55.7621 16.9273 55.3235C16.9293 55.0676 16.9332 55.0676 17.2292 54.9864C17.3116 55.0595 17.2782 55.163 17.2802 55.2524C17.2841 55.7154 17.2782 56.1784 17.2821 56.6394C17.2861 57.011 17.3566 57.08 17.7213 57.0902C18.2584 57.1044 18.2937 57.0679 18.2956 56.4993C18.2956 56.1215 18.2937 55.7438 18.2956 55.3661C18.2996 55.0351 18.3133 55.0229 18.6916 54.9843C18.6916 55.4352 18.6916 55.8839 18.6916 56.3327C18.6916 56.4424 18.6897 56.5521 18.6916 56.6617C18.7014 57.0313 18.9602 57.2019 19.2915 57.0597C19.4463 56.9927 19.4836 56.8628 19.4816 56.7044C19.4797 56.2414 19.4797 55.7783 19.4816 55.3174C19.4816 55.2341 19.4561 55.1326 19.5208 55.0737C19.5992 55.0026 19.7051 54.9478 19.809 54.9823C19.9051 55.0148 19.8737 55.1265 19.8737 55.2057C19.8756 55.6931 19.8717 56.1804 19.8756 56.6658C19.8796 57.0293 19.9345 57.0821 20.2893 57.0882C20.4775 57.0922 20.6657 57.0943 20.8538 57.0882C21.1479 57.076 21.2322 56.9927 21.2361 56.6922C21.242 56.2292 21.2381 55.7662 21.2381 55.3052C21.2381 55.2219 21.2126 55.1184 21.289 55.0676C21.3733 55.0107 21.4772 54.9417 21.5811 54.9904C21.6693 55.0331 21.6341 55.1407 21.636 55.2219C21.638 55.7093 21.6341 56.1967 21.638 56.682C21.6419 57.0293 21.6929 57.08 22.0281 57.0902C22.0869 57.0922 22.1457 57.0922 22.2045 57.0902C22.5691 57.0821 22.6417 57.011 22.6456 56.6414C22.6495 56.1906 22.6456 55.7398 22.6475 55.2889C22.6475 55.2179 22.6279 55.1326 22.6828 55.0798C22.7593 55.0026 22.8671 54.9539 22.969 54.9782C23.0729 55.0026 23.0396 55.1184 23.0396 55.1976C23.0416 55.6849 23.0376 56.1723 23.0416 56.6577C23.0455 57.0374 23.2807 57.2019 23.6238 57.0658C23.812 56.9927 23.8335 56.8221 23.8335 56.6434C23.8355 56.2048 23.8316 55.7662 23.8355 55.3275C23.8414 55.0412 23.8453 55.0412 24.1668 54.9803Z" fill="white"/>
<path d="M68.3817 47.952C68.3817 46.9772 68.3798 46.0045 68.3817 45.0297C68.3817 44.6622 68.3857 44.6581 68.7326 44.6581C69.85 44.6561 70.9654 44.6561 72.0828 44.6601C72.1887 44.6601 72.3298 44.6053 72.3749 44.7779C72.4239 44.9668 72.3533 45.0582 72.1338 45.0582C71.2869 45.0622 70.442 45.0582 69.5952 45.0602C69.0796 45.0602 69.1267 45.0155 69.1247 45.5557C69.1227 46.1284 69.1227 46.701 69.1247 47.2717C69.1267 47.5722 69.1306 47.5783 69.4187 47.5783C70.2068 47.5824 70.9929 47.5803 71.7809 47.5803C71.8633 47.5803 71.9456 47.5824 72.0279 47.5824C72.1651 47.5803 72.2122 47.6636 72.2122 47.7915C72.2122 47.9073 72.1612 47.9743 72.0456 47.9804C71.9632 47.9824 71.8809 47.9844 71.7986 47.9844C71.0105 47.9844 70.2244 47.9824 69.4364 47.9865C69.1306 47.9885 69.1267 47.9926 69.1267 48.3175C69.1247 49.0607 69.1247 49.804 69.1267 50.5452C69.1286 50.8458 69.1325 50.8519 69.4207 50.8519C70.3146 50.8539 71.2065 50.8519 72.1005 50.8539C72.1946 50.8539 72.2886 50.8539 72.3827 50.8579C72.4906 50.86 72.518 50.9331 72.518 51.0285C72.52 51.1362 72.5023 51.2255 72.3729 51.2275C72.3141 51.2296 72.2553 51.2296 72.1965 51.2296C71.0321 51.2296 69.8696 51.2316 68.7052 51.2296C68.3876 51.2296 68.3857 51.2255 68.3837 50.8762C68.3798 49.8994 68.3817 48.9247 68.3817 47.952Z" fill="white"/>
<path d="M47.9631 30.2154C47.9631 29.7646 47.965 29.3137 47.9631 28.8649C47.9611 28.4263 48.163 28.1318 48.5375 27.945C48.71 27.8597 48.8942 27.8232 49.0746 27.7765C49.2334 27.7338 49.3922 27.6912 49.5451 27.6242C49.696 27.5592 49.8038 27.4637 49.8215 27.281C49.8313 27.1855 49.8626 27.0921 49.8822 26.9967C49.9803 26.4849 50.2625 26.1397 50.7507 25.9975C51.5132 25.7762 52.2621 25.8452 52.9874 26.1641C53.3598 26.3285 53.6264 26.6169 53.7695 27.0109C53.9871 27.6099 54.0244 28.2192 53.8186 28.8304C53.5304 29.6833 52.7835 30.0773 51.9563 29.99C51.0055 29.8905 50.439 29.2995 50.1018 28.4202C50.0724 28.341 50.0469 28.2598 50.0234 28.1785C50.0018 28.0973 49.9567 28.0405 49.8744 28.0669C49.6137 28.1501 49.3373 28.1156 49.0765 28.1968C48.706 28.3105 48.5963 28.4405 48.5963 28.8385C48.5943 29.7036 48.5982 30.5667 48.5943 31.4318C48.5943 31.5475 48.6453 31.6877 48.5218 31.7689C48.3806 31.8603 48.216 31.9009 48.0533 31.911C47.9356 31.9192 47.965 31.7892 47.965 31.712C47.9592 31.2125 47.9611 30.7149 47.9631 30.2154ZM50.5095 27.4251C50.4899 27.6465 50.537 27.9003 50.6036 28.144C50.7448 28.67 50.9624 29.1594 51.4505 29.4376C52.3464 29.9473 52.9697 29.4945 53.1912 28.7248C53.2344 28.5745 53.2618 28.4182 53.2834 28.2618C53.4343 27.1449 52.9345 26.4098 51.9759 26.2615C51.8602 26.2433 51.7426 26.2331 51.625 26.2311C50.8663 26.2128 50.4978 26.5966 50.5095 27.4251Z" fill="white"/>
<path d="M67.8054 37.3352C67.8054 36.3503 67.8035 35.3634 67.8054 34.3785C67.8054 34.0556 67.8094 34.0515 68.1152 34.0515C69.2541 34.0495 70.3931 34.0495 71.534 34.0515C71.6575 34.0515 71.8084 34.0129 71.8084 34.2282C71.8084 34.3419 71.7751 34.417 71.6516 34.417C71.5692 34.417 71.4869 34.4191 71.4046 34.4191C70.5597 34.4191 69.7128 34.4171 68.8679 34.4191C68.5543 34.4191 68.5504 34.4252 68.5484 34.7399C68.5445 35.3735 68.5464 36.0051 68.5484 36.6387C68.5504 36.9697 68.5543 36.9717 68.8895 36.9717C69.7109 36.9737 70.5342 36.9737 71.3556 36.9717C71.4928 36.9717 71.6222 36.9697 71.6065 37.1748C71.5987 37.2763 71.5653 37.3352 71.4614 37.3373C71.3791 37.3393 71.2968 37.3393 71.2144 37.3393C70.4401 37.3393 69.6638 37.3372 68.8895 37.3393C68.5523 37.3393 68.5484 37.3433 68.5464 37.6723C68.5445 38.4014 68.5445 39.1324 68.5464 39.8615C68.5484 40.1986 68.5523 40.2026 68.8836 40.2047C69.7638 40.2067 70.6459 40.2047 71.5261 40.2067C71.6202 40.2067 71.7143 40.2047 71.8064 40.2168C71.928 40.2331 71.9397 40.3306 71.9417 40.4362C71.9417 40.5539 71.8947 40.6189 71.7751 40.6169C71.7163 40.6149 71.6575 40.6189 71.5986 40.6189C70.4479 40.6189 69.2972 40.6189 68.1446 40.6189C67.8035 40.6189 67.8015 40.6169 67.8015 40.2534C67.8035 39.2827 67.8054 38.31 67.8054 37.3352Z" fill="white"/>
<path d="M22.8632 47.9478C22.8632 46.9608 22.8612 45.9759 22.8632 44.989C22.8632 44.662 22.8671 44.658 23.169 44.658C24.3099 44.6559 25.4488 44.6559 26.5897 44.658C26.7132 44.658 26.8642 44.6194 26.8661 44.8346C26.8681 44.9626 26.8289 45.0499 26.6917 45.056C26.6093 45.06 26.527 45.06 26.4447 45.06C25.5978 45.06 24.7529 45.058 23.9061 45.06C23.5748 45.06 23.5728 45.0641 23.5709 45.4032C23.5689 46.0125 23.5689 46.6217 23.5709 47.2289C23.5728 47.5761 23.5748 47.5782 23.9296 47.5782C24.7176 47.5802 25.5037 47.5782 26.2918 47.5782C26.3741 47.5782 26.4564 47.5761 26.5388 47.5843C26.6721 47.5964 26.6623 47.7041 26.6642 47.8015C26.6662 47.899 26.6329 47.9701 26.529 47.9742C26.4466 47.9782 26.3643 47.9782 26.282 47.9782C25.4822 47.9782 24.6843 47.9762 23.8845 47.9802C23.5748 47.9823 23.5709 47.9863 23.5709 48.3072C23.5689 49.0504 23.5669 49.7937 23.5709 50.5349C23.5728 50.8334 23.5846 50.8456 23.8708 50.8456C24.7764 50.8497 25.6802 50.8477 26.5858 50.8477C26.6799 50.8477 26.774 50.8477 26.8681 50.8517C26.9779 50.8578 26.9994 50.937 26.9994 51.0304C26.9994 51.1198 26.9896 51.2071 26.8818 51.2193C26.8113 51.2274 26.7407 51.2254 26.6701 51.2254C25.5174 51.2254 24.3667 51.2254 23.2141 51.2254C23.1553 51.2254 23.0965 51.2233 23.0376 51.2233C22.9239 51.2254 22.8632 51.1726 22.8651 51.0487C22.8671 50.9269 22.8632 50.805 22.8632 50.6832C22.8632 49.7734 22.8632 48.8596 22.8632 47.9478Z" fill="white"/>
<path d="M85.4953 47.9295C85.4953 46.9426 85.4933 45.9556 85.4953 44.9707C85.4953 44.6641 85.5012 44.658 85.7835 44.658C86.9244 44.6559 88.0633 44.6559 89.2042 44.658C89.3042 44.658 89.4238 44.6255 89.4551 44.7859C89.4904 44.9666 89.4316 45.054 89.2376 45.058C88.8847 45.0641 88.5318 45.0601 88.179 45.0601C87.6027 45.0601 87.0263 45.0641 86.45 45.058C86.2736 45.056 86.1971 45.1149 86.1991 45.3078C86.2069 45.978 86.1991 46.6481 86.203 47.3182C86.2049 47.5701 86.2128 47.5782 86.4696 47.5782C87.2694 47.5822 88.0692 47.5802 88.8671 47.5802C88.9494 47.5802 89.0317 47.5822 89.1141 47.5802C89.2238 47.5782 89.2944 47.6168 89.2964 47.7447C89.2983 47.8665 89.2748 47.966 89.1337 47.9762C89.0513 47.9823 88.969 47.9823 88.8867 47.9823C88.1104 47.9823 87.3341 47.9823 86.5598 47.9823C86.2049 47.9823 86.203 47.9843 86.201 48.3356C86.1991 49.0789 86.1991 49.8221 86.201 50.5634C86.203 50.8416 86.2089 50.8456 86.4794 50.8477C87.3733 50.8497 88.2672 50.8497 89.1591 50.8497C89.2415 50.8497 89.3238 50.8538 89.4061 50.8497C89.5394 50.8436 89.5943 50.9066 89.5943 51.0467C89.5924 51.1969 89.512 51.2315 89.3905 51.2254C89.3434 51.2234 89.2964 51.2254 89.2493 51.2254C88.1084 51.2254 86.9695 51.2254 85.8286 51.2254C85.4973 51.2254 85.4933 51.2213 85.4933 50.8883C85.4933 49.9034 85.4953 48.9164 85.4953 47.9295Z" fill="white"/>
<path d="M81.7511 34.5833C81.6727 34.7052 81.559 34.7153 81.4689 34.7702C81.2924 34.8778 81.165 34.8453 81.0062 34.693C80.4828 34.1873 79.8339 34.1102 79.2557 34.4574C78.9812 34.6219 78.7871 34.8554 78.695 35.1763C78.5676 35.621 78.6715 35.9927 79.0283 36.279C79.3164 36.5125 79.632 36.6994 79.9751 36.8354C80.4377 37.0182 80.8847 37.2273 81.2669 37.5644C81.6727 37.9198 81.9178 38.3727 81.9433 38.9169C81.9629 39.3292 81.8041 39.7028 81.5394 40.0156C81.0533 40.5923 80.4201 40.7994 79.7046 40.7527C79.1733 40.7182 78.6617 40.5882 78.1971 40.2999C78.1265 40.2572 78.0579 40.2085 77.9952 40.1536C77.8462 40.0237 77.8658 39.9912 78.0422 39.8795C78.2971 39.717 78.497 39.7475 78.7303 39.9506C79.1635 40.3283 79.6732 40.4907 80.2397 40.3364C80.7729 40.1902 81.0748 39.7962 81.1846 39.2642C81.2924 38.7443 81.0631 38.3463 80.671 38.0315C80.3593 37.7817 79.9947 37.6416 79.6379 37.4893C79.2439 37.3208 78.8773 37.1136 78.5421 36.8374C77.6639 36.1145 77.8129 35.0199 78.5441 34.3985C79.4086 33.6634 80.9121 33.767 81.6786 34.4757C81.7061 34.5021 81.7198 34.5366 81.7511 34.5833Z" fill="white"/>
<path d="M56.0925 50.6263C56.1847 50.5025 56.3023 50.5004 56.3905 50.4436C56.563 50.3319 56.6904 50.3522 56.8551 50.5025C57.2374 50.8497 57.6902 51.0386 58.2136 51.0041C58.9879 50.9533 59.5976 50.1308 59.4055 49.3917C59.3251 49.087 59.1506 48.8474 58.9075 48.6586C58.6233 48.4372 58.2979 48.2951 57.9705 48.157C57.5451 47.9762 57.1354 47.7711 56.7767 47.4645C55.9416 46.7578 55.9416 45.6977 56.7826 45.0053C57.7157 44.2397 59.0663 44.4224 59.8093 45.0174C60.021 45.188 60.0092 45.2368 59.7642 45.3566C59.5427 45.4642 59.38 45.4561 59.1741 45.2632C58.5116 44.6377 57.5 44.7656 57.0492 45.4947C56.7139 46.0369 56.8041 46.5466 57.302 46.9345C57.6137 47.1782 57.9568 47.3609 58.3214 47.5071C58.6958 47.6574 59.0546 47.8341 59.3741 48.09C59.8995 48.5103 60.2347 49.0444 60.1484 49.7491C60.0543 50.5106 59.5878 51.0162 58.9017 51.2376C57.9333 51.5483 57.0217 51.3473 56.1925 50.7502C56.1572 50.7198 56.1337 50.6751 56.0925 50.6263Z" fill="white"/>
<path d="M91.8683 51.3656C91.241 51.3697 90.7216 51.2316 90.2354 50.9656C90.1119 50.8986 89.9982 50.8092 89.8865 50.7198C89.8257 50.6711 89.7943 50.5939 89.8884 50.5472C90.0256 50.4762 90.1648 50.4152 90.3079 50.3584C90.402 50.3218 90.4569 50.4031 90.5196 50.4579C90.7921 50.6975 91.094 50.8762 91.4469 50.9615C92.3329 51.1747 93.0994 50.6142 93.1602 49.674C93.1876 49.2537 92.9602 48.9328 92.6584 48.679C92.3722 48.4393 92.033 48.2951 91.6939 48.155C91.245 47.9682 90.8117 47.7509 90.4452 47.4158C90.0649 47.0686 89.8257 46.6543 89.8806 46.106C89.9276 45.641 90.1688 45.2856 90.5079 45.0053C91.439 44.2357 92.7858 44.4205 93.5327 45.0155C93.7424 45.182 93.7287 45.2369 93.4876 45.3546C93.2661 45.4623 93.1014 45.4582 92.8975 45.2612C92.4016 44.7779 91.7586 44.7373 91.1724 45.0906C90.8196 45.3039 90.6392 45.6328 90.5863 46.039C90.5393 46.4005 90.702 46.6766 90.9686 46.8899C91.2959 47.1539 91.6566 47.3529 92.0448 47.5052C92.4643 47.6697 92.8603 47.8788 93.2092 48.1753C93.4307 48.3642 93.6013 48.5957 93.7267 48.8597C94.1286 49.7106 93.7071 50.533 93.2131 50.9107C92.7897 51.2336 92.3192 51.3981 91.8683 51.3656Z" fill="white"/>
<path d="M20.2618 51.3654C19.6482 51.3695 19.1425 51.2293 18.6641 50.9796C18.5916 50.941 18.5191 50.8983 18.4544 50.8476C18.2113 50.6587 18.225 50.61 18.4799 50.4556C18.7014 50.3216 18.8543 50.3683 19.0405 50.5328C19.4934 50.9329 20.0168 51.1136 20.6088 50.9471C21.2047 50.7785 21.4948 50.3196 21.5634 49.7225C21.6203 49.225 21.3282 48.8757 20.9636 48.5975C20.697 48.3944 20.3873 48.2746 20.0834 48.1467C19.5698 47.9314 19.0778 47.6776 18.6935 47.245C18.1349 46.6155 18.1349 45.7951 18.721 45.1899C19.6639 44.2152 21.1165 44.3634 21.9536 45.0275C22.1417 45.1777 22.1261 45.2306 21.9045 45.3504C21.685 45.4681 21.5223 45.4722 21.3125 45.2712C20.6891 44.6741 19.8188 44.733 19.2738 45.3666C18.9366 45.7585 18.8131 46.4551 19.3914 46.9018C19.7639 47.1902 20.1736 47.3933 20.599 47.5639C20.9303 47.6979 21.238 47.8725 21.5184 48.0959C21.9359 48.4269 22.2339 48.8473 22.279 49.3997C22.3378 50.1084 22.0261 50.6445 21.4596 51.0222C21.0734 51.2801 20.646 51.3938 20.2618 51.3654Z" fill="white"/>
<path d="M32.8647 45.6246C32.7902 45.7119 32.7 45.7139 32.6295 45.7546C32.4001 45.8825 32.2315 45.8398 32.0492 45.6368C31.7061 45.255 31.2553 45.0885 30.7554 45.0641C30.1947 45.0377 29.6557 45.1007 29.1695 45.4357C28.5481 45.8622 28.2442 46.4978 28.1031 47.2187C27.8972 48.2808 28.0658 49.2738 28.7304 50.143C29.2734 50.8517 30.4339 51.2457 31.3513 50.8212C31.665 50.675 31.9727 50.5126 32.208 50.2567C32.3844 50.0638 32.5491 50.0313 32.7667 50.1369C32.8412 50.1734 32.9176 50.1998 32.9941 50.2303C32.7882 50.8395 31.4003 51.5483 30.0497 51.3432C28.401 51.0934 27.4581 49.9582 27.3229 48.2625C27.2288 47.0766 27.7541 45.4479 29.2812 44.8773C30.6613 44.3594 32.3942 44.8285 32.8647 45.6246Z" fill="white"/>
<path d="M84.819 45.6001C84.7132 45.728 84.5995 45.7301 84.5034 45.7747C84.3329 45.8519 84.1976 45.8235 84.0643 45.6773C83.2978 44.8365 81.8001 44.9279 81.1238 45.4336C80.6808 45.7646 80.3632 46.187 80.1888 46.7251C79.8653 47.7182 79.9065 48.6889 80.3495 49.6311C80.9062 50.8171 82.4647 51.471 83.7428 50.5774C83.8997 50.4678 84.0702 50.3764 84.1878 50.2221C84.3231 50.0474 84.4681 50.0291 84.6524 50.1165C84.7543 50.1652 84.8759 50.1713 84.9837 50.2566C84.8484 50.5226 84.621 50.681 84.3937 50.8191C83.3076 51.4831 82.1726 51.5603 81.016 51.0445C80.1731 50.6688 79.6516 49.9763 79.4223 49.0706C79.0812 47.7161 79.2949 46.4875 80.2887 45.4722C80.6573 45.0944 81.114 44.8751 81.6178 44.7614C82.5333 44.5563 83.4135 44.6355 84.2505 45.1005C84.4721 45.2224 84.6544 45.3869 84.819 45.6001Z" fill="white"/>
<path d="M66.0157 50.2346C65.8745 50.5168 65.653 50.659 65.4433 50.8052C64.2514 51.6297 62.4989 51.5586 61.3835 50.6265C60.7503 50.0965 60.4307 49.3654 60.3308 48.545C60.2582 47.9398 60.2896 47.3347 60.5052 46.7478C60.9385 45.5761 61.7363 44.8937 62.9419 44.7089C63.7731 44.581 64.5533 44.7008 65.2923 45.1151C65.508 45.2369 65.702 45.3872 65.8275 45.6187C65.7001 45.7527 65.5432 45.7629 65.4021 45.8116C65.2688 45.8583 65.1806 45.7771 65.0963 45.6857C64.318 44.8287 62.7263 44.8714 61.9284 45.5923C61.5834 45.905 61.3462 46.2909 61.2051 46.7376C60.8522 47.8627 60.9189 48.9471 61.5599 49.9482C62.148 50.8682 63.5104 51.386 64.6787 50.6306C64.8787 50.5026 65.0806 50.3747 65.2374 50.1919C65.3453 50.066 65.455 50.0254 65.6099 50.0944C65.7295 50.1513 65.8569 50.1818 66.0157 50.2346Z" fill="white"/>
<path d="M52.315 12.7935C52.3738 12.964 52.3522 13.1001 52.3522 13.2321C52.3542 14.8506 52.3542 16.4691 52.3542 18.0896C52.3542 18.1993 52.3483 18.3089 52.362 18.4186C52.4051 18.7516 52.5914 18.9588 52.9148 18.9771C53.301 18.9994 53.6911 19.0014 54.0773 18.9791C54.4282 18.9588 54.6066 18.7273 54.6085 18.3374C54.6124 17.4845 54.6066 16.6336 54.6124 15.7807C54.6164 15.3075 54.5144 15.3705 55.0418 15.1938C55.0966 15.1755 55.1515 15.1451 55.2143 15.1816C55.2652 15.2649 55.2437 15.3664 55.2437 15.4618C55.2456 16.3757 55.2476 17.2875 55.2437 18.2013C55.2417 18.8816 54.834 19.3203 54.1753 19.3426C53.7401 19.3568 53.3049 19.3527 52.8717 19.3446C52.1405 19.3304 51.719 18.8836 51.7171 18.1241C51.7151 16.5544 51.7171 14.9846 51.7171 13.4128C51.7171 12.962 51.7171 12.962 52.1307 12.8483C52.1856 12.828 52.2405 12.8138 52.315 12.7935Z" fill="white"/>
<path d="M15.1728 37.3455C15.1728 36.3606 15.1708 35.3757 15.1728 34.3887C15.1728 34.0577 15.1767 34.0516 15.4708 34.0516C16.5862 34.0496 17.7016 34.0496 18.817 34.0516C18.9386 34.0516 19.0934 34.007 19.0974 34.2243C19.0993 34.3359 19.0699 34.4172 18.9445 34.4172C18.8621 34.4172 18.7798 34.4192 18.6975 34.4192C17.8761 34.4192 17.0528 34.4172 16.2314 34.4192C15.8844 34.4192 15.8805 34.4233 15.8805 34.7868C15.8785 35.4183 15.8785 36.0519 15.8805 36.6835C15.8824 36.9637 15.8864 36.9698 16.1549 36.9718C16.9293 36.9759 17.7055 36.9739 18.4799 36.9739C18.5622 36.9739 18.6445 36.9739 18.7269 36.9779C18.8523 36.9861 18.8739 37.0774 18.8758 37.183C18.8778 37.2866 18.8268 37.3394 18.7269 37.3394C18.6092 37.3394 18.4916 37.3414 18.374 37.3414C17.682 37.3414 16.9881 37.3414 16.2961 37.3414C15.8805 37.3414 15.8805 37.3435 15.8805 37.7882C15.8805 38.6025 15.8805 39.4189 15.8805 40.2332C15.8805 40.6251 15.8785 40.6251 15.4884 40.6211C15.4531 40.6211 15.4178 40.6191 15.3826 40.6211C15.2355 40.6312 15.165 40.5683 15.1728 40.4099C15.1787 40.2637 15.1728 40.1175 15.1728 39.9712C15.1728 39.098 15.1728 38.2208 15.1728 37.3455Z" fill="white"/>
<path d="M13.534 37.3309C13.534 38.3158 13.536 39.2987 13.534 40.2836C13.534 40.6187 13.5301 40.6187 13.2007 40.6227C13.1655 40.6227 13.1302 40.6227 13.0949 40.6227C12.791 40.6166 12.7871 40.6166 12.7871 40.2938C12.7852 38.326 12.7852 36.3582 12.7871 34.3884C12.7871 34.0533 12.791 34.0533 13.1204 34.0492C13.1674 34.0492 13.2145 34.0472 13.2615 34.0492C13.5262 34.0574 13.532 34.0574 13.534 34.3417C13.534 35.3388 13.534 36.3359 13.534 37.3309Z" fill="white"/>
<path d="M44.3051 47.895C44.3051 46.9344 44.3051 45.9718 44.3051 45.0113C44.3051 44.658 44.3071 44.6559 44.6599 44.658C44.7187 44.658 44.7776 44.66 44.8364 44.66C44.952 44.658 45.0128 44.7108 45.0108 44.8326C45.0108 44.9057 45.0128 44.9788 45.0128 45.0519C45.0128 46.975 45.0128 48.8981 45.0128 50.8192C45.0128 50.8923 45.0089 50.9654 45.0128 51.0385C45.0187 51.1827 44.9442 51.2193 44.8168 51.2294C44.3188 51.27 44.3071 51.2619 44.3071 50.7441C44.3051 49.7937 44.3051 48.8453 44.3051 47.895Z" fill="white"/>
<path d="M60.0367 37.3374C60.0367 36.3504 60.0347 35.3655 60.0367 34.3786C60.0367 34.0577 60.0406 34.0557 60.3464 34.0517C60.417 34.0517 60.4875 34.0557 60.5581 34.0517C60.6934 34.0456 60.7502 34.1126 60.7463 34.2486C60.7443 34.3217 60.7463 34.3948 60.7463 34.468C60.7463 36.3789 60.7463 38.2918 60.7463 40.2028C60.7463 40.2637 60.7424 40.3246 60.7463 40.3855C60.76 40.5561 60.6914 40.6231 60.5228 40.6231C59.9387 40.6191 60.0386 40.6455 60.0367 40.15C60.0347 39.2118 60.0367 38.2756 60.0367 37.3374Z" fill="white"/>
<path d="M67.2252 47.9479C67.2252 48.9328 67.2271 49.9197 67.2252 50.9046C67.2252 51.2234 67.2213 51.2234 66.9135 51.2275C66.8429 51.2275 66.7724 51.2234 66.7018 51.2275C66.5626 51.2336 66.5156 51.1564 66.5195 51.0244C66.5214 50.9513 66.5195 50.8782 66.5195 50.8051C66.5195 48.8942 66.5195 46.9833 66.5195 45.0723C66.5195 44.9992 66.5234 44.9261 66.5195 44.853C66.5136 44.7149 66.5783 44.6682 66.7096 44.656C67.2036 44.6093 67.2252 44.6276 67.2252 45.1373C67.2252 46.0735 67.2252 47.0097 67.2252 47.9479Z" fill="white"/>
<path d="M83.0234 37.337C83.0234 36.3643 83.0234 35.3895 83.0234 34.4168C83.0234 34.0533 83.0254 34.0533 83.3665 34.0513C83.437 34.0513 83.5076 34.0533 83.5782 34.0533C83.6782 34.0553 83.7272 34.1102 83.7272 34.2117C83.7272 34.2848 83.7291 34.3579 83.7291 34.431C83.7291 36.3663 83.7291 38.3016 83.7291 40.2369C83.7291 40.2856 83.7252 40.3344 83.7291 40.3831C83.7428 40.5517 83.6801 40.6248 83.5096 40.6227C82.9313 40.6166 83.0273 40.6491 83.0234 40.1475C83.0195 39.2114 83.0234 38.2752 83.0234 37.337Z" fill="white"/>
<path d="M45.5479 26.702C45.5479 27.6524 45.5479 28.6008 45.5479 29.5511C45.5479 29.6486 45.5479 29.7461 45.5421 29.8436C45.5362 29.941 45.4852 30.002 45.3872 30.006C45.3049 30.0101 45.2225 30.0121 45.1402 30.0101C44.8873 30.004 44.8814 30.002 44.8775 29.7441C44.8736 29.4029 44.8756 29.0617 44.8756 28.7206C44.8756 27.163 44.8756 25.6034 44.8756 24.0458C44.8756 23.664 45.052 23.4772 45.4166 23.463C45.4852 23.461 45.5323 23.4894 45.5381 23.5605C45.546 23.6579 45.546 23.7554 45.546 23.8529C45.5479 24.8033 45.5479 25.7537 45.5479 26.702Z" fill="white"/>
<path d="M35.1897 16.0326C35.1897 17.0175 35.1916 18.0045 35.1877 18.9894C35.1877 19.1031 35.2504 19.2656 35.1112 19.3143C34.9466 19.3712 34.7623 19.3671 34.5937 19.3062C34.5369 19.2859 34.5251 19.2107 34.5231 19.1498C34.5212 19.0523 34.5212 18.9549 34.5192 18.8574C34.5192 17.0439 34.5192 15.2305 34.5192 13.417C34.5192 12.9886 34.6545 12.8363 35.0603 12.8017C35.1289 12.7956 35.1779 12.818 35.1818 12.8931C35.1877 12.9906 35.1877 13.0881 35.1877 13.1855C35.1897 14.1339 35.1897 15.0843 35.1897 16.0326Z" fill="white"/>
<path d="M92.2663 55.563C92.1918 55.4656 92.1134 55.3762 92.0487 55.2767C91.7193 54.7853 91.9683 54.1151 92.5936 54.0075C92.7426 53.9811 92.8975 53.9933 93.0504 53.9994C93.3719 54.0095 93.611 54.172 93.7561 54.4624C93.9031 54.7609 93.8443 55.0533 93.6659 55.3214C93.613 55.4006 93.5464 55.4676 93.4895 55.5346C93.4875 55.6199 93.5483 55.6422 93.5934 55.6747C93.9051 55.9042 94.007 56.2271 93.9443 56.6008C93.8835 56.9724 93.6522 57.2079 93.3091 57.3075C93.0014 57.3968 92.6799 57.4049 92.376 57.2871C91.7095 57.0333 91.5547 56.2332 92.0683 55.7255C92.1271 55.6707 92.1937 55.6219 92.2663 55.563ZM92.8798 57.147C93.2641 57.143 93.6052 56.7937 93.6032 56.4099C93.5993 56.0281 93.2503 55.6768 92.872 55.6768C92.4701 55.6747 92.1232 56.0342 92.133 56.4363C92.1447 56.816 92.4956 57.1511 92.8798 57.147ZM93.4719 54.8035C93.4679 54.4766 93.1778 54.2045 92.8426 54.2146C92.5113 54.2248 92.2702 54.4766 92.2663 54.8157C92.2623 55.161 92.5623 55.4696 92.8896 55.4574C93.1994 55.4453 93.4758 55.1366 93.4719 54.8035Z" fill="white"/>
<path d="M25.2391 55.4024C25.2391 55.8289 25.2351 56.2533 25.241 56.6798C25.2449 57.0027 25.3292 57.0819 25.6448 57.092C25.786 57.0961 25.9271 57.0961 26.0663 57.092C26.3819 57.0819 26.4643 57.0006 26.4682 56.6777C26.4741 56.2168 26.476 55.7538 26.4682 55.2928C26.4643 55.1202 26.5133 55.0146 26.6838 54.978C26.8054 54.9516 26.8642 54.9882 26.8642 55.1181C26.8642 55.3009 26.8661 55.4837 26.8661 55.6644C26.8661 55.9934 26.872 56.3203 26.8642 56.6493C26.8544 57.0676 26.6368 57.3032 26.2349 57.3276C25.9899 57.3418 25.7409 57.3398 25.4959 57.3276C25.0705 57.3073 24.849 57.0737 24.845 56.6331C24.8392 55.8187 24.8431 55.0044 24.8431 54.1901C24.8431 54.1292 24.8372 54.0622 24.8607 54.0114C24.9097 53.8997 25.0215 53.8672 25.1254 53.8692C25.2685 53.8733 25.2351 54.0033 25.2351 54.0906C25.2391 54.5272 25.2371 54.9638 25.2391 55.4024Z" fill="white"/>
<path d="M5.67313 56.5397C5.79663 56.4036 5.80447 56.2635 5.84171 56.1376C6.03382 55.4979 6.28475 54.8826 6.56507 54.2795C6.68465 54.0236 6.68857 54.0236 7.01986 54.052C7.00026 54.2348 6.90617 54.3912 6.83363 54.5475C6.47098 55.3415 6.17693 56.1579 5.96325 57.0088C5.92601 57.1611 5.90248 57.3134 5.68097 57.3012C5.51238 57.2931 5.43397 57.2423 5.39476 57.0656C5.18893 56.101 4.85567 55.1791 4.44989 54.2876C4.41656 54.2145 4.30482 54.1069 4.44205 54.0419C4.54594 53.9931 4.67924 53.9891 4.76158 54.1069C4.80863 54.1739 4.83803 54.2571 4.87332 54.3323C5.1752 54.9801 5.40456 55.6563 5.59863 56.3447C5.6202 56.4057 5.64372 56.4605 5.67313 56.5397Z" fill="white"/>
<path d="M10.2936 57.2467C9.98189 57.3158 9.98189 57.3158 9.87015 57.0538C9.56042 56.3329 9.2997 55.5917 9.0723 54.8383C8.95468 54.8687 8.97037 54.9703 8.94684 55.0454C8.74101 55.7196 8.49597 56.3776 8.22937 57.0274C8.10979 57.3178 8.10195 57.3137 7.76477 57.2467C7.84514 56.8893 8.02157 56.5705 8.14703 56.2334C8.37835 55.6079 8.59595 54.9804 8.76453 54.3326C8.77433 54.2981 8.78806 54.2636 8.7959 54.2291C8.8253 54.091 8.90176 54.026 9.0429 54.0199C9.18796 54.0138 9.25853 54.0849 9.29186 54.2189C9.54278 55.1855 9.87603 56.1197 10.2661 57.0335C10.2936 57.1026 10.3132 57.1716 10.2936 57.2467Z" fill="white"/>
<path d="M73.2943 55.6321C73.2943 55.1447 73.2982 54.6573 73.2924 54.1699C73.2904 54.0034 73.3394 53.9262 73.5139 53.9283C74.0549 53.9364 74.596 53.9303 75.137 53.9323C75.1821 53.9323 75.2331 53.9364 75.2742 53.9547C75.2997 53.9668 75.3272 54.0095 75.3252 54.0359C75.3252 54.0643 75.2958 54.1131 75.2723 54.1171C75.1919 54.1334 75.1096 54.1395 75.0292 54.1395C74.6528 54.1415 74.2764 54.1476 73.9001 54.1374C73.7177 54.1334 73.6472 54.2004 73.655 54.3913C73.6648 54.6593 73.6648 54.9274 73.655 55.1954C73.6491 55.3863 73.7275 55.4554 73.9059 55.4513C74.247 55.4432 74.5881 55.4493 74.9292 55.4493C75.0116 55.4493 75.0939 55.4513 75.1762 55.4615C75.2095 55.4655 75.2409 55.4899 75.2409 55.5325C75.2409 55.5711 75.2252 55.5996 75.1899 55.6199C75.1017 55.6686 75.0057 55.6524 74.9135 55.6524C74.5724 55.6544 74.2313 55.6605 73.8902 55.6503C73.6981 55.6442 73.6491 55.7397 73.655 55.9184C73.6629 56.223 73.6629 56.5276 73.655 56.8322C73.6491 57.019 73.7158 57.0962 73.9001 57.0922C74.2764 57.084 74.6528 57.0901 75.0292 57.0901C75.1115 57.0901 75.1939 57.0901 75.2762 57.0942C75.3566 57.0982 75.4134 57.1368 75.4036 57.2302C75.3958 57.3034 75.3389 57.3297 75.2782 57.3297C75.0312 57.3338 74.7842 57.3338 74.5372 57.3338C74.2313 57.3338 73.9255 57.3358 73.6197 57.3338C73.3002 57.3318 73.2982 57.3298 73.2963 56.9825C73.2943 56.5337 73.2943 56.0829 73.2943 55.6321Z" fill="white"/>
<path d="M86.9754 55.9794C86.7813 55.9794 86.6343 55.9835 86.4853 55.9794C86.0246 55.9632 85.6659 55.6565 85.5816 55.2138C85.4895 54.7204 85.707 54.2675 86.1462 54.0807C86.4598 53.9466 86.7931 53.9446 87.1106 54.0563C87.6046 54.2309 87.8516 54.7224 87.7321 55.2504C87.6948 55.4169 87.634 55.5753 87.5458 55.7215C87.2675 56.1865 86.9871 56.6496 86.7107 57.1126C86.6539 57.208 86.6009 57.3035 86.4716 57.2933C86.4049 57.2892 86.3226 57.3156 86.2853 57.2364C86.2579 57.1755 86.2991 57.1207 86.3304 57.0699C86.4559 56.8648 86.5813 56.6597 86.7048 56.4526C86.7891 56.3104 86.8695 56.1662 86.9754 55.9794ZM86.6402 55.7621C87.0636 55.7581 87.4066 55.4027 87.3968 54.9742C87.389 54.5538 87.0479 54.2066 86.6519 54.2147C86.2304 54.2228 85.9168 54.5538 85.9266 54.9823C85.9344 55.4372 86.2363 55.7662 86.6402 55.7621Z" fill="white"/>
<path d="M3.45604 56.6636C3.45604 56.7652 3.45801 56.9114 3.45604 57.0556C3.45408 57.1612 3.47761 57.281 3.3149 57.2932C3.16984 57.3033 3.11103 57.2505 3.08947 57.0942C3.04438 56.7672 3.05026 56.4403 3.0385 56.1113C3.0287 55.831 3.02674 55.831 2.76405 55.8635C2.50529 55.894 2.25045 55.8899 1.99561 55.8229C1.63099 55.7275 1.45064 55.5081 1.43104 55.1325C1.39967 54.5821 1.85446 54.0521 2.38571 54.0237C2.74249 54.0054 2.98753 54.1943 3.1522 54.505C3.28354 54.7527 3.35019 55.0269 3.37371 55.3071C3.40704 55.7457 3.42664 56.1824 3.45604 56.6636ZM1.81918 55.0167C1.80546 55.2137 1.84074 55.3965 2.00933 55.5305C2.24261 55.7193 2.70328 55.7275 2.94048 55.5467C2.97969 55.5163 3.02085 55.4858 3.01301 55.431C2.95616 55.0756 2.9542 54.6999 2.70328 54.4075C2.54842 54.2268 2.37199 54.1902 2.16616 54.306C1.89759 54.4562 1.81134 54.7101 1.81918 55.0167Z" fill="white"/>
<path d="M90.4079 54.2736C89.9413 54.2736 89.5453 54.2736 89.1474 54.2736C89.0533 54.2736 88.9592 54.2716 88.8671 54.2553C88.822 54.2472 88.7926 54.2005 88.7945 54.1457C88.7945 54.0888 88.8259 54.0502 88.8729 54.0401C88.9415 54.0259 89.0121 54.0238 89.0827 54.0238C89.563 54.0218 90.0452 54.0198 90.5255 54.0238C90.8372 54.0259 90.8823 54.0908 90.7509 54.3934C90.4177 55.157 90.0727 55.9165 89.7316 56.676C89.6669 56.8202 89.6002 56.9603 89.5355 57.1045C89.5159 57.1491 89.5042 57.1979 89.4787 57.2365C89.3963 57.3644 89.267 57.3522 89.1631 57.3055C89.0317 57.2446 89.1258 57.137 89.1611 57.0598C89.4277 56.4648 89.7002 55.8718 89.9668 55.2768C90.106 54.9702 90.2393 54.6615 90.4079 54.2736Z" fill="white"/>
<path d="M83.5213 54.6553C83.733 54.4096 83.9722 54.233 84.2172 54.0746C84.4328 53.9344 84.5681 54.0258 84.5701 54.2918C84.574 55.2036 84.572 56.1175 84.572 57.0293C84.572 57.0658 84.5701 57.1024 84.5701 57.1389C84.572 57.2852 84.4897 57.3258 84.3662 57.3258C84.2505 57.3258 84.1937 57.2669 84.1917 57.1471C84.1898 57.013 84.1898 56.879 84.1898 56.745C84.1898 56.0992 84.1937 55.4555 84.1878 54.8097C84.1858 54.564 84.1349 54.5315 83.9585 54.6777C83.8095 54.8016 83.6918 54.8036 83.5213 54.6553Z" fill="white"/>
<path d="M75.9917 57.0559C76.1799 56.9767 76.3191 56.9746 76.4583 57.0721C76.6033 57.1716 76.766 57.1919 76.9307 57.1513C77.2051 57.0843 77.2934 56.7695 77.1012 56.5563C77.0032 56.4466 76.8758 56.3857 76.7425 56.3329C76.5876 56.272 76.4347 56.207 76.3054 56.1034C75.9525 55.8191 75.9741 55.3805 76.3485 55.1368C76.6641 54.9317 77.1757 54.9845 77.4953 55.2607C77.3914 55.3602 77.2875 55.413 77.1581 55.3155C77.0228 55.214 76.8719 55.2099 76.7209 55.2526C76.5916 55.2891 76.4877 55.3683 76.4622 55.5206C76.4367 55.6668 76.4877 55.7806 76.5955 55.874C76.6876 55.9552 76.8033 55.9836 76.9091 56.0344C77.1012 56.1237 77.2973 56.209 77.4404 56.3816C77.7031 56.6964 77.6227 57.1087 77.262 57.2934C76.8778 57.4925 76.3779 57.4092 75.9917 57.0559Z" fill="white"/>
<path d="M78.9439 57.3664C78.5695 57.3644 78.3774 57.1796 78.3715 56.7938C78.3637 56.3815 78.3715 55.9693 78.3696 55.557C78.3676 55.2809 78.3656 55.2809 78.099 55.2281C78.0755 55.224 78.052 55.226 78.0304 55.2179C77.9834 55.1996 77.9579 55.1651 77.9618 55.1083C77.9638 55.0636 77.9991 55.0331 78.0265 55.0351C78.3774 55.0697 78.395 54.8422 78.3735 54.5762C78.3637 54.4462 78.4088 54.3711 78.5499 54.3711C78.6891 54.3711 78.7381 54.4401 78.7303 54.5721C78.7283 54.6087 78.7303 54.6452 78.7303 54.6818C78.7244 54.9458 78.6871 55.0453 79.0616 55.023C79.1184 55.0189 79.1792 55.027 79.2321 55.0453C79.2556 55.0534 79.2831 55.1001 79.2811 55.1286C79.2792 55.157 79.2497 55.2057 79.2262 55.2078C79.1341 55.222 79.042 55.2321 78.9479 55.2281C78.8087 55.224 78.7283 55.2666 78.7303 55.4311C78.7361 55.8799 78.7244 56.3287 78.7361 56.7775C78.742 57.0435 78.8263 57.1248 79.0655 57.1532C79.1419 57.1634 79.2556 57.1207 79.2615 57.2405C79.2674 57.3847 79.1361 57.3482 79.0518 57.3644C79.0145 57.3725 78.9792 57.3664 78.9439 57.3664Z" fill="white"/>
<path d="M38.728 23.1505C38.9045 23.0429 38.9633 22.9292 38.8672 22.7363C38.7555 22.5129 38.8594 22.3017 39.0182 22.1433C39.3357 21.8265 39.7317 21.7473 40.1591 21.7859C40.21 21.7899 40.2532 21.8163 40.261 21.8691C40.2728 21.9483 40.2179 21.9707 40.1551 21.9788C40.063 21.991 39.9669 21.991 39.8768 22.0174C39.5572 22.1067 39.3475 22.322 39.3593 22.5332C39.371 22.7627 39.5768 22.9495 39.9101 23.0084C40.0708 23.0368 40.2375 23.0185 40.4002 23.0368C40.5178 23.051 40.7334 22.9698 40.7295 23.1221C40.7256 23.3211 40.506 23.2196 40.3845 23.2236C39.9395 23.2378 39.4945 23.2318 39.0476 23.2277C38.9574 23.2236 38.8613 23.2541 38.728 23.1505Z" fill="white"/>
<path d="M58.7526 14.6437C58.5135 14.6376 58.3371 14.4386 58.3488 14.1888C58.3606 13.9512 58.5331 13.7745 58.7546 13.7725C58.9859 13.7704 59.18 13.9735 59.18 14.2131C59.18 14.4609 58.9918 14.6498 58.7526 14.6437Z" fill="white"/>
<path d="M9.10371 19.9521C9.33894 19.9542 9.52125 20.1471 9.51929 20.3948C9.51733 20.6426 9.3311 20.8254 9.08998 20.8193C8.86455 20.8132 8.68812 20.6284 8.69008 20.4009C8.69008 20.1532 8.87631 19.9521 9.10371 19.9521Z" fill="white"/>
<path d="M48.1513 20.819C47.9043 20.8068 47.7455 20.622 47.7612 20.36C47.7749 20.1265 47.9592 19.9458 48.1748 19.9539C48.4061 19.962 48.5924 20.1651 48.5924 20.4067C48.5904 20.6443 48.3924 20.8312 48.1513 20.819Z" fill="white"/>
<path d="M90.7196 20.8192C90.4687 20.8253 90.2981 20.6548 90.2981 20.3948C90.2962 20.1593 90.4628 19.9663 90.6765 19.9542C90.9019 19.942 91.1156 20.1369 91.1273 20.3684C91.141 20.606 90.9529 20.8132 90.7196 20.8192Z" fill="white"/>
<path d="M6.06324 20.8189C5.82212 20.8189 5.64374 20.6321 5.64962 20.3803C5.65354 20.1488 5.82997 19.9579 6.04364 19.9518C6.28476 19.9457 6.49255 20.165 6.48275 20.4168C6.47295 20.6402 6.28672 20.8189 6.06324 20.8189Z" fill="white"/>
<path d="M7.12376 20.8189C6.87284 20.825 6.70229 20.6545 6.70229 20.3945C6.70033 20.159 6.86695 19.966 7.08063 19.9538C7.30607 19.9396 7.51974 20.1366 7.5315 20.3681C7.54522 20.6037 7.35703 20.8129 7.12376 20.8189Z" fill="white"/>
<path d="M26.5976 31.0439C26.6054 31.3059 26.4447 31.4826 26.1938 31.4887C25.9585 31.4948 25.7684 31.2998 25.7684 31.0561C25.7684 30.8368 25.9487 30.6398 26.1644 30.6216C26.3918 30.6053 26.5917 30.8003 26.5976 31.0439Z" fill="white"/>
<path d="M49.2138 20.8192C48.9648 20.8131 48.806 20.6364 48.8139 20.3724C48.8217 20.1369 48.9981 19.9541 49.2138 19.9541C49.4431 19.9541 49.6451 20.1592 49.6431 20.3907C49.6411 20.6303 49.449 20.8233 49.2138 20.8192Z" fill="white"/>
<path d="M59.8152 13.7725C60.0328 13.7745 60.2386 13.9979 60.2327 14.2233C60.2269 14.4589 60.0191 14.6558 59.7917 14.6437C59.5643 14.6315 59.4055 14.4548 59.4035 14.2152C59.4016 13.9593 59.578 13.7704 59.8152 13.7725Z" fill="white"/>
<path d="M30.1085 24.442C30.3242 24.446 30.532 24.6755 30.5202 24.9009C30.5065 25.1284 30.285 25.3335 30.0693 25.3192C29.8498 25.305 29.6949 25.1202 29.6969 24.8786C29.6969 24.6166 29.8674 24.4379 30.1085 24.442Z" fill="white"/>
<path d="M25.5449 31.0663C25.5468 31.3283 25.3841 31.4968 25.1312 31.4887C24.9038 31.4826 24.7372 31.31 24.7294 31.0765C24.7215 30.8389 24.9117 30.6277 25.1371 30.6236C25.3645 30.6195 25.5429 30.8104 25.5449 31.0663Z" fill="white"/>
<path d="M45.2833 14.213C45.2833 13.9368 45.4284 13.7866 45.693 13.7927C45.9185 13.7988 46.0969 13.9693 46.1067 14.1927C46.1165 14.4161 45.9145 14.6395 45.695 14.6476C45.4637 14.6598 45.2833 14.4669 45.2833 14.213Z" fill="white"/>
<path d="M1.63293 14.2091C1.63489 14.465 1.45062 14.66 1.21734 14.6498C0.995822 14.6397 0.838996 14.4589 0.837036 14.2112C0.837036 13.9614 0.993862 13.7766 1.21342 13.7725C1.45846 13.7685 1.63097 13.9492 1.63293 14.2091Z" fill="white"/>
<path d="M54.9614 14.1969C54.9673 14.4548 54.7908 14.6538 54.5595 14.6497C54.34 14.6477 54.1733 14.4649 54.1675 14.2213C54.1616 13.9694 54.3145 13.7826 54.5321 13.7704C54.7752 13.7603 54.9555 13.941 54.9614 14.1969Z" fill="white"/>
<path d="M2.68363 24.897C2.67775 25.1508 2.49152 25.3295 2.24844 25.3133C2.04065 25.2991 1.85638 25.0858 1.86226 24.8665C1.8701 24.637 2.04653 24.4644 2.27785 24.4624C2.54445 24.4624 2.69147 24.6167 2.68363 24.897Z" fill="white"/>
<path d="M2.68563 14.2235C2.68171 14.4773 2.49744 14.6581 2.25436 14.6438C2.04461 14.6317 1.86034 14.4225 1.86426 14.2011C1.87014 13.9717 2.04657 13.797 2.27592 13.795C2.54253 13.7909 2.68955 13.9453 2.68563 14.2235Z" fill="white"/>
<path d="M1.63094 24.9355C1.61134 25.1649 1.41335 25.3396 1.19771 25.3172C0.960515 25.2929 0.815451 25.0939 0.838975 24.8238C0.860539 24.5801 1.04285 24.4197 1.26632 24.4481C1.51921 24.4806 1.65447 24.6613 1.63094 24.9355Z" fill="white"/>
<path d="M25.2998 52.9334C25.2077 53.0329 25.1175 53.0228 25.045 53.0532C24.945 53.0938 24.847 53.1527 24.8509 53.2807C24.8548 53.4066 24.9548 53.4594 25.0509 53.5101C25.1489 53.5609 25.2528 53.5569 25.3586 53.5629C25.4214 53.567 25.4959 53.5325 25.5606 53.632C25.2547 53.7153 24.9568 53.6706 24.6608 53.6685C24.5941 53.6685 24.5765 53.6218 24.5647 53.5487C24.5118 53.1649 24.6667 52.9476 25.0391 52.907C25.1175 52.8969 25.1979 52.8867 25.2998 52.9334Z" fill="white"/>
<path d="M80.4847 57.0943C80.4828 57.2567 80.3769 57.3603 80.2201 57.3542C80.075 57.3481 79.9535 57.2283 79.9496 57.0821C79.9456 56.942 80.0691 56.8018 80.2064 56.7957C80.3553 56.7876 80.4867 56.9277 80.4847 57.0943Z" fill="white"/>
<path d="M26.9936 54.4098C26.9975 54.5459 26.8858 54.6596 26.7505 54.6555C26.6133 54.6515 26.5368 54.5784 26.527 54.4362C26.5153 54.2819 26.6054 54.1681 26.7387 54.1661C26.8642 54.1621 26.9916 54.2839 26.9936 54.4098Z" fill="white"/>
<path d="M14.1006 54.4238C14.0966 54.5517 14.0319 54.635 13.8967 54.6533C13.7536 54.6736 13.6379 54.5822 13.6281 54.4441C13.6183 54.3142 13.7281 54.1761 13.8496 54.1659C13.9672 54.1578 14.0927 54.2796 14.1006 54.4238Z" fill="white"/>
<path d="M26.3859 54.4013C26.3937 54.5537 26.3055 54.6532 26.1624 54.6572C26.0291 54.6613 25.9095 54.5496 25.9193 54.4135C25.9291 54.2795 26.0036 54.1922 26.133 54.1698C26.2585 54.1495 26.378 54.2633 26.3859 54.4013Z" fill="white"/>
<path d="M14.4514 54.6575C14.3201 54.6433 14.2338 54.5722 14.2201 54.4321C14.2083 54.296 14.3279 54.1681 14.4553 54.166C14.5886 54.164 14.6867 54.2798 14.6769 54.4341C14.669 54.5783 14.5926 54.6494 14.4514 54.6575Z" fill="white"/>
</g>
<defs>
<clipPath id="clip0_1740_28089">
<rect width="165" height="63.7246" fill="white"/>
</clipPath>
</defs>
</svg>
