<svg width="81" height="85" viewBox="0 0 81 85" fill="none" xmlns="http://www.w3.org/2000/svg">
<g clip-path="url(#clip0_1740_28770)">
<path d="M80.7834 43.2532C80.7834 51.0001 80.7834 58.9621 80.7834 66.7089C80.7834 71.8735 81 76.8229 81 81.9874C81 82.4178 81 82.633 81 83.0634C81 84.3545 80.3503 84.7849 79.0508 84.7849C71.9037 84.7849 64.5401 84.7849 57.393 84.7849C39.8503 84.7849 22.0909 84.7849 4.54813 85.0001C0.86631 85.0001 0.649733 85.0001 0.649733 81.557C0.433155 78.5444 0.86631 75.5317 0.86631 72.5191C0.86631 70.3672 0.649733 68.0001 0.433155 65.633C0.433155 64.7722 0 63.6963 0 62.8355C0 47.3419 0 32.0634 0 16.5697C0 14.8482 0.433155 12.9115 0.433155 11.19C0.433155 9.25324 0.216578 7.53172 0.216578 5.59502C0.216578 5.37983 0.216578 4.94945 0.216578 4.73426C0.649733 1.50641 0.216578 1.50641 3.46524 1.29122C8.87968 0.645649 14.5107 0.430459 20.1417 0.215269C26.8556 7.89687e-05 33.3529 0.215269 40.0668 0.215269C46.3476 0.215269 52.8449 0.215269 59.3422 0.215269C60.8583 0.215269 62.1577 0.430459 63.6738 0.430459C66.2727 0.430459 68.8717 0.430459 71.4706 0.215269C73.4198 0.215269 75.1524 -0.215111 76.885 1.07603C77.1016 1.29122 77.3182 1.29122 77.5348 1.29122C78.1845 1.29122 79.0508 0.860839 79.2674 1.07603C80.1337 2.15198 81.2166 3.01274 81.2166 4.73426C80.7834 17.4305 80.7834 30.3419 80.7834 43.2532ZM38.5508 59.6077C38.3342 59.6077 38.1176 59.6077 37.9011 59.6077C37.6845 60.0381 37.4679 60.4684 37.4679 60.8988C37.0348 64.7722 36.6016 68.6457 36.1684 72.5191C35.9519 73.595 36.6016 74.0254 37.4679 73.8102C43.5321 73.595 49.5963 74.8862 55.6604 73.8102C57.6096 73.3798 59.7754 74.0254 61.7246 74.0254C63.6738 74.0254 65.623 74.0254 67.5722 73.8102C68.6551 73.8102 69.0882 73.1646 68.8717 71.8735C68.6551 70.7976 68.6551 69.7216 68.6551 68.4305C68.6551 66.7089 68.8717 64.9874 69.0882 63.0507C69.0882 61.9748 68.8717 61.114 68.6551 60.2532C68.6551 60.0381 68.0053 59.8229 67.7888 59.8229C67.5722 59.8229 67.3556 60.2533 67.3556 60.4684C66.9225 63.0507 66.4893 65.8482 66.2727 68.4305C66.0561 69.5064 66.2727 70.3672 66.2727 71.4431C64.9733 71.8735 64.7567 71.2279 64.7567 70.152C64.7567 69.2912 64.7567 68.4305 64.7567 67.5697C64.7567 64.7722 64.5401 64.557 61.7246 64.3419C60.6417 64.3419 59.5588 64.3419 58.4759 64.3419C57.8262 64.3419 57.1765 64.557 56.5267 64.7722C56.5267 64.9874 56.5267 65.2026 56.5267 65.4178C58.6925 65.8482 60.6417 66.2786 62.8075 66.7089C62.8075 68.2153 62.5909 69.5064 62.5909 71.0127C60.8583 71.0127 59.3422 70.7976 57.8262 70.7976C55.6604 70.5824 55.6604 70.5824 55.4438 68.4305C55.4438 66.0634 54.5775 65.2026 52.1952 64.9874C51.762 64.9874 51.3289 64.7722 50.8957 64.7722C49.1631 64.7722 47.4305 64.7722 45.6979 64.7722C44.8316 64.7722 44.3984 65.2026 44.3984 66.2786C44.3984 67.3545 44.3984 68.4305 44.1818 69.2912C44.1818 69.7216 43.7487 70.152 43.5321 70.3672C43.3155 69.9368 42.8824 69.7216 42.6658 69.2912C42.4492 68.8608 42.2326 68.4305 42.2326 68.0001C42.016 68.0001 41.7995 68.0001 41.7995 68.0001C41.5829 68.6457 41.3663 69.2912 41.3663 69.9368C41.1497 70.7975 40.9332 71.2279 40.0668 71.0127C40.0668 67.7849 40.0668 64.557 40.0668 61.5444C39.4171 61.5444 38.984 60.6836 38.5508 59.6077ZM35.5187 18.5064C34.2192 18.5064 32.9198 18.5064 31.8369 18.5064C30.9706 18.5064 30.5374 18.076 30.5374 17.2153C30.5374 15.9241 30.5374 14.8482 30.5374 13.557C30.5374 13.1267 30.1043 12.6963 29.8877 12.4811C29.6711 12.9115 29.238 13.1267 29.0214 13.557C28.8048 14.8482 28.8048 16.3545 28.8048 17.6456C28.8048 18.5064 28.3717 18.7216 27.5053 18.7216C26.639 18.7216 26.2059 18.7216 26.2059 17.6456C26.2059 16.7849 26.2059 15.7089 26.2059 14.8482C26.2059 13.7722 25.9893 12.9115 24.4733 12.0507C24.2567 13.7722 24.0401 15.0634 24.0401 16.5697C24.0401 18.7216 23.607 19.152 21.4412 18.2912C21.2246 16.3545 21.008 14.4178 20.7914 12.2659C20.5749 12.2659 20.3583 12.2659 20.1417 12.2659C19.9251 12.6963 19.7086 13.3419 19.492 13.7722C19.2754 15.0634 19.492 16.3545 19.2754 17.4305C19.2754 17.8608 18.8422 18.5064 18.6257 18.5064C16.893 18.5064 14.9438 18.5064 12.9947 18.5064C12.7781 18.076 12.9947 17.6457 12.9947 17.2153C12.9947 15.9241 12.9947 14.8482 12.9947 13.557C12.9947 12.6963 12.3449 12.2659 11.4786 12.2659C8.6631 12.2659 8.6631 12.2659 8.22995 15.0634C8.22995 15.2786 8.22995 15.7089 8.01337 15.9241C8.01337 16.7849 8.22995 17.4305 9.09626 17.4305C9.96257 17.4305 10.3957 17.8608 10.3957 18.7216C10.3957 19.7975 11.9118 21.3039 13.2112 21.0887C16.6765 21.0887 20.1417 20.8735 23.607 20.8735C25.5561 20.8735 27.5053 20.8735 29.4545 20.8735C34.0027 20.8735 38.3342 20.8735 42.8824 20.8735C44.3984 20.8735 45.9144 20.8735 47.4305 20.8735C48.2968 20.8735 49.1631 20.4431 49.1631 19.3672C49.1631 17.4305 49.3797 15.7089 49.1631 13.7722C49.1631 13.3419 48.5134 12.6963 48.2968 12.2659C48.0802 12.6963 47.6471 12.9115 47.4305 13.3419C47.2139 13.9874 47.2139 14.8482 47.2139 15.4938C47.2139 16.5697 47.2139 17.4305 47.2139 18.5064C46.3476 18.5064 45.9144 18.5064 45.2647 18.5064C43.9652 18.7216 43.5321 18.076 43.5321 16.7849C43.5321 15.7089 43.5321 14.4178 43.3155 13.3419C43.3155 12.9115 42.6658 12.4811 42.2326 12.0507C42.016 12.4811 41.5829 12.9115 41.5829 13.3419C41.3663 15.2786 41.1497 17.0001 41.1497 18.5064C40.0668 18.5064 38.984 18.5064 38.1176 18.5064C37.4679 16.5697 38.5508 14.4178 37.2513 12.6963C37.0348 12.6963 36.8182 12.6963 36.6016 12.6963C36.1684 14.633 35.7353 16.5697 35.5187 18.5064ZM34.4358 51.6457C34.6524 52.7216 34.4358 54.2279 34.869 54.6583C35.5187 55.3039 37.0348 55.0887 38.1176 55.0887C40.0668 55.3039 40.7166 54.8735 40.7166 52.9368C40.7166 51.6457 41.1497 51.2153 42.4492 51.2153C43.7487 51.4305 44.3984 50.7849 44.3984 49.2786C44.3984 47.3419 44.615 45.19 44.615 43.2532C44.615 42.3925 44.1818 41.5317 43.9652 40.671C43.7487 40.671 43.5321 40.671 43.5321 40.671C41.7995 43.2532 42.6658 46.4811 42.016 49.0634C38.7674 49.0634 35.7353 49.0634 32.7032 49.0634C32.4866 47.7722 32.4866 46.4811 32.2701 45.19C32.2701 44.9748 32.0535 44.5444 31.8369 44.3292C30.9706 43.6836 28.1551 43.8988 26.8556 44.9748C28.1551 45.4051 29.238 45.8355 30.3209 46.2659C30.3209 46.4811 30.3209 46.6963 30.3209 46.9115C30.1043 47.9874 30.3209 49.0634 28.5882 48.8482C26.2059 48.633 26.4225 48.8482 26.2059 46.6963C26.2059 45.6203 25.7727 44.7596 25.5561 43.4684C23.1738 44.9748 24.9064 47.557 23.3904 49.2786C22.3075 47.557 23.8235 45.4051 21.6578 43.8988C21.4412 44.9748 21.2246 45.6203 21.008 46.4811C20.7914 47.3419 20.7914 48.2026 20.5749 48.8482C19.2754 47.3419 20.5749 45.19 18.6257 43.8988C18.4091 44.5444 17.9759 44.9748 17.7594 45.4051C17.5428 46.2659 17.7594 47.1267 17.5428 47.9874C17.5428 48.4178 17.1096 49.0634 16.6765 49.0634C15.8102 49.2786 15.5936 48.633 15.5936 47.9874C15.5936 47.557 15.5936 46.9115 15.5936 46.2659C15.377 45.6203 15.1604 44.7596 14.7273 44.114C14.5107 44.114 14.5107 44.114 14.2941 44.114C14.0775 46.0507 13.6444 47.7722 13.4278 49.7089C12.1283 49.7089 11.0455 49.7089 9.74599 49.7089C9.74599 48.633 9.52941 47.557 9.52941 46.4811C9.52941 46.0507 9.52941 45.4051 9.31283 44.7596C9.31283 45.19 8.87968 44.9748 8.6631 44.5444C8.44652 44.9748 8.01337 45.19 8.01337 45.6203C8.01337 46.6963 8.01337 47.7722 8.01337 48.633C8.01337 52.076 8.44652 52.5064 11.9118 52.2912C12.1283 52.2912 12.3449 52.2912 12.5615 52.2912C14.0775 52.076 15.5936 51.6457 17.1096 51.6457C20.1417 51.6457 23.3904 51.8608 26.4225 51.8608C27.9385 51.8608 29.4545 52.5064 30.5374 52.076C32.2701 51.2153 33.1364 51.4305 34.4358 51.6457ZM63.0241 12.9115C63.2406 13.3419 63.2406 13.3419 63.4572 13.7722C63.8904 15.9241 63.0241 17.2153 61.0749 17.2153C58.2594 17.2153 58.6925 17.6456 58.4759 14.4178C58.4759 12.9115 57.8262 12.2659 56.3102 12.2659C55.2273 12.2659 54.1444 12.2659 53.0615 12.4811C52.6283 12.4811 52.4118 12.9115 52.1952 13.1267C53.4947 14.4178 52.4118 15.7089 52.6283 17.2153C52.6283 18.7216 53.2781 19.3672 54.7941 19.3672C55.4438 19.3672 55.877 19.3672 56.7433 19.3672C56.5267 20.6583 56.5267 21.7343 56.3102 23.2406C55.6604 23.2406 55.0107 23.2406 54.5775 23.0254C54.1444 22.8102 53.2781 22.8102 52.8449 22.8102C52.4118 22.8102 51.9786 23.2406 51.5455 23.4558C51.9786 23.671 52.1952 24.3165 52.6283 24.3165C53.7112 24.3165 55.0107 24.3165 56.3102 24.3165C58.6925 24.3165 58.6925 24.3165 58.6925 21.9494C58.6925 20.4431 59.1257 20.0127 60.6417 20.2279C61.9412 20.4431 63.2406 20.6583 64.5401 20.4431C66.0561 20.4431 67.5722 19.7976 69.0882 19.5824C69.9545 19.3672 70.3877 18.9368 70.1711 18.076C70.1711 16.3545 70.1711 14.8482 69.9545 13.1267C69.9545 12.9115 69.5214 12.4811 69.5214 12.4811C67.139 12.2659 64.9733 12.0507 63.0241 12.9115ZM9.96257 27.5444C9.74599 27.5444 9.52941 27.5444 9.31283 27.5444C9.09626 27.7596 8.6631 28.19 8.6631 28.6203C8.44652 30.557 8.22995 32.7089 8.22995 34.6457C8.22995 36.152 9.31283 37.2279 10.8289 37.2279C13.2112 37.2279 15.8102 37.0127 18.1925 37.0127C20.1417 37.0127 20.7914 35.7216 21.2246 34.4305C21.4412 33.5697 21.8743 33.3545 22.7406 33.5697C25.9893 33.5697 29.238 33.7849 32.4866 33.7849C32.9198 33.7849 34.0027 33.3545 34.0027 32.9241C34.2192 31.633 34.2192 30.1267 34.0027 28.8355C34.0027 28.6203 33.5695 28.19 33.3529 27.9748C33.1364 27.9748 32.7032 28.4051 32.7032 28.6203C32.2701 29.4811 31.8369 30.3419 31.4037 30.9874C28.5882 30.9874 26.2059 30.9874 23.607 30.9874C22.3075 30.9874 21.4412 30.7722 21.4412 29.2659C21.4412 28.8355 21.008 28.4051 20.7914 27.9748C20.3583 28.19 20.1417 28.4051 20.1417 28.4051C19.7086 30.7722 19.0588 32.9241 18.6257 35.2912C16.6765 35.076 14.7273 34.8608 12.7781 34.8608C11.262 34.8608 11.0455 34.4305 10.8289 32.9241C10.6123 30.9874 10.1791 29.2659 9.96257 27.5444ZM15.1604 71.0127C15.1604 71.4431 14.9438 71.8735 14.9438 72.0887C14.9438 73.1646 15.377 74.0254 16.4599 74.0254C18.6257 74.0254 20.7914 74.0254 22.9572 73.8102C23.3904 73.8102 24.2567 73.1646 24.2567 72.7343C24.2567 70.3672 24.0401 68.0001 23.8235 65.633C23.8235 65.2026 23.1738 64.7722 22.7406 64.3419C22.5241 64.7722 22.0909 65.2026 22.0909 65.633C21.8743 66.2786 21.8743 67.1393 21.8743 67.7849C21.8743 69.076 21.8743 70.3672 21.8743 71.6583C20.1417 71.4431 18.8422 71.4431 17.3262 71.2279C17.3262 69.5064 17.3262 68.0001 17.3262 66.4938C17.1096 64.557 16.4599 64.1267 14.7273 64.1267C12.9947 64.1267 11.262 64.1267 9.74599 63.9115C8.22995 63.6963 7.79679 64.1267 7.79679 65.633C7.79679 66.4938 7.79679 67.5697 7.79679 68.4305C7.79679 70.3672 8.01337 70.5824 9.74599 70.7976C11.4786 71.0127 13.2112 71.0127 15.1604 71.0127ZM69.0882 45.8355C70.1711 45.8355 71.254 45.8355 72.3369 45.8355C72.5535 45.8355 72.7701 45.4051 73.2032 45.19C72.9866 44.9748 72.7701 44.5444 72.3369 44.5444C71.4706 44.3292 70.6043 44.3292 69.738 44.3292C67.7888 44.3292 67.3556 44.7596 67.5722 46.6963C67.5722 49.2786 67.139 49.7089 64.5401 49.0634C64.1069 47.557 64.5401 45.6203 62.8075 44.114C62.3743 45.8355 62.1578 47.3419 61.9412 48.8482C61.0749 48.8482 60.2086 48.8482 59.3422 48.633C59.1257 46.9115 59.5588 45.19 58.0428 43.4684C57.6096 44.9748 56.9599 46.0507 56.9599 47.3419C56.7433 48.633 56.3102 49.0634 55.0107 48.8482C54.1444 48.633 53.2781 48.633 52.4118 48.8482C51.762 49.0634 51.1123 49.4938 50.4626 49.9241C51.1123 50.3545 51.9786 51.0001 52.6283 51.4305C52.8449 51.4305 52.8449 51.4305 53.0615 51.4305C59.1257 51.4305 65.1898 51.6457 71.254 51.6457C71.9037 51.6457 72.5535 51.6457 72.9866 51.4305C73.4198 51.2153 73.6364 50.5697 73.8529 50.1393C73.4198 49.9241 73.2032 49.7089 72.7701 49.4938C71.6872 49.2786 70.6043 49.0634 69.5214 48.8482C69.0882 47.9874 69.0882 47.1267 69.0882 45.8355ZM59.3422 27.114C59.1257 27.114 58.9091 27.114 58.6925 27.114C58.4759 29.2659 58.2594 31.4178 57.8262 33.5697C55.4438 33.7849 52.6283 32.9241 49.5963 34.2153C50.246 34.8608 50.6791 35.9368 51.1123 35.9368C53.2781 36.152 55.2273 36.3672 57.393 36.152C60.8583 35.9368 64.5401 35.5064 68.0053 35.5064C69.0882 35.5064 69.738 35.076 69.5214 34.0001C69.5214 32.2786 69.3048 30.557 69.0882 28.6203C69.0882 27.9748 68.6551 27.5444 68.4385 26.8988C66.4893 29.0507 66.7059 31.2026 67.5722 33.3545C64.9733 33.3545 62.8075 33.3545 60.4251 33.3545C60.4251 31.2026 61.0749 28.8355 59.3422 27.114ZM34.6524 66.7089C34.6524 66.4938 34.6524 66.2786 34.4358 66.0634C34.2192 65.633 33.7861 64.9874 33.5695 64.557C33.1364 64.9874 32.7032 65.2026 32.4866 65.8482C30.9706 68.2153 29.238 70.3672 26.639 71.6583C26.2059 71.8735 25.7727 72.7343 25.7727 72.9494C26.2059 73.3798 26.8556 74.0254 27.5053 74.0254C29.8877 73.8102 34.2192 69.5064 34.6524 67.1393C34.6524 66.9241 34.6524 66.9241 34.6524 66.7089ZM50.6791 29.6963C50.6791 29.4811 50.6791 29.2659 50.4626 29.0507C50.246 28.6203 49.8128 27.9748 49.5963 27.5444C49.1631 27.9748 48.7299 28.4051 48.5134 28.8355C46.9973 31.2026 45.2647 33.3545 42.6658 34.6457C42.2326 34.8608 41.7995 35.7216 42.016 35.9368C42.4492 36.3672 43.0989 37.0127 43.7487 37.0127C46.3476 36.7976 50.246 32.9241 50.8957 30.3419C50.6791 29.9115 50.6791 29.6963 50.6791 29.6963ZM70.3877 66.0634C70.6043 68.6457 70.6043 70.7975 70.8209 72.7343C70.8209 73.1646 71.4706 73.3798 71.9037 73.8102C72.1203 73.3798 72.7701 72.9494 72.7701 72.5191C72.9866 70.3672 72.9866 68.4305 72.9866 66.2786C72.9866 64.7722 72.9866 63.2659 72.7701 61.7596C72.7701 61.3292 72.3369 60.6836 72.3369 60.2532C71.9037 60.6836 71.254 60.8988 71.0374 61.3292C70.6043 63.2659 70.3877 64.9874 70.3877 66.0634ZM47.2139 41.3165C46.7807 41.5317 46.5642 41.5317 46.5642 41.7469C46.131 44.9748 45.9144 47.9874 45.4813 51.0001C45.4813 51.2153 45.9144 51.6457 46.3476 51.6457C46.7807 51.6457 47.2139 51.4305 47.2139 51.2153C47.4305 50.7849 47.6471 50.3545 47.6471 49.7089C47.6471 47.557 47.6471 45.19 47.6471 42.8229C47.6471 42.6077 47.4305 41.9621 47.2139 41.3165ZM7.58021 60.8988C8.22995 61.3292 8.44652 61.7596 8.6631 61.7596C10.6123 61.9748 12.5615 61.9748 14.7273 61.9748C14.9438 61.9748 15.377 61.3292 15.5936 60.8988C15.1604 60.4684 14.5107 59.8229 14.0775 59.8229C12.7781 59.8229 11.262 60.0381 9.96257 60.2532C9.09626 60.4684 8.44652 60.6836 7.58021 60.8988ZM13.4278 8.82286C11.4786 8.17729 9.74599 8.39248 8.22995 8.60767C8.01337 8.60767 8.01337 9.25324 8.01337 9.68362C9.31283 9.89881 10.3957 10.5444 11.6952 10.5444C12.1283 10.5444 12.5615 9.68362 13.4278 8.82286ZM55.6604 8.60767C55.6604 8.39248 56.0936 7.9621 56.0936 7.53172C55.2273 7.53172 54.361 7.53172 53.2781 7.31654C53.4947 8.60767 53.4946 9.68362 53.7112 10.5444C54.5775 10.7596 55.6604 11.6203 56.3102 10.3292C56.7433 10.114 56.0936 9.25324 55.6604 8.60767ZM26.2059 76.8229C26.2059 76.6077 25.9893 76.1773 25.9893 75.9621C24.2567 75.9621 22.7406 76.1773 21.008 76.1773C20.7914 76.1773 20.5749 76.8229 20.5749 76.8229C20.5749 77.0381 21.008 77.4684 21.2246 77.4684C22.3075 77.4684 23.3904 77.6836 24.2567 77.4684C25.123 77.4684 25.5561 77.0381 26.2059 76.8229ZM30.5374 37.2279C31.4037 37.8735 31.8369 38.3039 32.4866 38.5191C33.3529 38.7343 34.0027 38.0887 33.7861 37.2279C33.5695 36.3672 32.9198 35.5064 32.4866 34.6457C31.8369 35.2912 31.4037 36.152 30.5374 37.2279ZM17.1096 27.5444C16.2433 26.4684 15.5936 25.8229 15.1604 25.3925C14.7273 26.0381 14.2941 26.8988 14.0775 27.5444C14.0775 27.9748 14.7273 28.8355 15.1604 28.8355C15.5936 28.8355 16.0267 28.19 17.1096 27.5444ZM48.9465 60.8988C48.7299 60.8988 48.5134 60.8988 48.2968 60.8988C48.2968 61.7596 48.2968 62.8355 48.2968 63.6963C48.7299 63.4811 49.3797 63.6963 49.5963 63.2659C50.246 62.4051 49.5963 61.7596 48.9465 60.8988ZM69.0882 36.5824C68.8717 36.5824 68.6551 36.5824 68.4385 36.5824C68.2219 37.2279 67.5722 37.8735 67.5722 38.5191C67.5722 38.9494 68.2219 39.3798 68.4385 39.8102C68.8717 39.3798 69.3048 39.1646 69.3048 38.7343C69.5214 37.8735 69.0882 37.2279 69.0882 36.5824ZM12.1283 41.3165C11.0455 42.1773 10.6123 43.0381 11.4786 43.8988C11.6952 44.114 12.5615 44.114 12.7781 43.8988C13.6444 43.0381 12.9947 42.1773 12.1283 41.3165ZM62.3743 53.5824C63.0241 54.0127 63.2406 54.4431 63.6738 54.6583C63.8904 54.2279 64.5401 54.0127 64.5401 53.5824C64.5401 53.152 63.8904 52.5064 63.6738 52.076C63.2406 52.7216 62.8075 53.152 62.3743 53.5824Z" fill="white"/>
<path d="M45.4813 67.3545C47.4305 67.5697 49.3797 67.5697 51.3289 67.7849C52.1952 67.7849 52.4118 68.2153 52.4118 69.076C52.4118 69.9368 52.4118 71.0127 52.4118 72.0887C50.246 71.8735 48.2968 71.6583 46.3476 71.2279C46.1311 71.2279 45.6979 70.5823 45.6979 70.152C45.4813 69.2912 45.4813 68.4304 45.4813 67.3545Z" fill="white"/>
<path d="M10.1792 15.7088C9.9626 14.8481 9.74602 13.9873 11.4786 13.9873C11.2621 14.6329 11.0455 15.2784 10.8289 15.924C10.6123 15.924 10.3958 15.924 10.1792 15.7088Z" fill="white"/>
<path d="M36.8182 51.6455C37.4679 51.6455 37.9011 51.6455 38.5508 51.6455C38.5508 52.5063 38.7674 53.367 37.6845 53.367C37.2513 53.367 36.8182 52.5063 36.385 52.0759C36.6016 51.8607 36.6016 51.6455 36.8182 51.6455Z" fill="white"/>
<path d="M68.0054 17.2153C64.9733 17.4305 64.9733 17.4305 65.4064 14.4178C66.2728 14.4178 67.1391 14.4178 68.0054 14.2026C68.0054 15.4938 68.0054 16.3545 68.0054 17.2153Z" fill="white"/>
<path d="M54.361 13.9873C55.2273 13.9873 55.877 14.2025 57.1765 14.4177C56.0936 15.4936 57.6096 17.6455 55.2273 17.4303C53.2781 17.2152 54.7941 15.2784 54.1444 14.4177C54.361 14.2025 54.361 14.2025 54.361 13.9873Z" fill="white"/>
<path d="M10.1791 68.8607C9.96255 68 9.96255 67.3544 9.74597 66.4937C11.4786 66.4937 13.2112 66.4937 14.9438 66.4937C15.1604 68.6456 15.1604 68.6456 12.9946 68.8607C12.3449 68.8607 11.262 68.8607 10.1791 68.8607Z" fill="white"/>
</g>
<defs>
<clipPath id="clip0_1740_28770">
<rect width="81" height="85" fill="white"/>
</clipPath>
</defs>
</svg>
